<?xml version="1.0" encoding="UTF-8" standalone="no"?>
<!DOCTYPE svg PUBLIC "-//W3C//DTD SVG 1.1//EN" "http://www.w3.org/Graphics/SVG/1.1/DTD/svg11.dtd">
<svg xmlns:xl="http://www.w3.org/1999/xlink" xmlns:dc="http://purl.org/dc/elements/1.1/" version="1.1" xmlns="http://www.w3.org/2000/svg" viewBox="-1 0 77 72" width="77" height="72">
  <defs/>
  <metadata> Produced by OmniGraffle 7.10.1 
    <dc:date>2021-10-13 11:56:24 +0000</dc:date>
  </metadata>
  <g id="Canvas_1" stroke-dasharray="none" fill="none" fill-opacity="1" stroke="none" stroke-opacity="1">
    <title>Canvas 1</title>
    <g id="Canvas_1: Layer 1">
      <title>Layer 1</title>
      <g id="Group_2">
        <title>Canvas_1</title>
        <g id="Group_3">
          <title>Canvas_1: Layer 1</title>
          <g id="Group_10">
            <title>Graphic_723</title>
            <g id="Graphic_11">
              <path d="M 74.496195 19.454744 C 77.59619 11.614744 70.886195 6.364744 63.736195 5.244744 C 59.206195 4.5247437 55.196195 5.564744 50.806195 6.514744 C 48.266195 7.074744 45.566195 7.694744 43.066195 6.634744 C 40.716195 5.634744 39.686195 3.2947437 37.686195 1.8347437 C 34.692365 -.3110793 30.748145 -.5969493 27.476195 1.0947437 C 23.036195 3.4647437 22.686195 8.794744 17.266195 10.034744 C 13.006195 11.034744 9.516195 11.034744 6.8061945 14.964744 C 5.5156045 16.889779 4.5525945 19.015175 3.9561945 21.254744 C 3.3761945 23.514744 3.7661945 25.854744 3.3561945 28.104744 C 2.4461945 29.634744 .9661945 30.604744 .2661945 32.424744 C -.2744455 34.05067 -.6562255 35.725164 -.8738055 37.424744 C -1.4438055 41.134744 -.003805489 42.924744 1.8561945 45.824744 C 4.1961945 49.474744 2.1461945 55.824744 3.0361945 60.164744 C 3.6284945 63.58833 5.4444845 66.680125 8.1461945 68.86474 C 13.856195 73.06474 24.416195 72.07474 30.316195 68.66474 C 33.696195 66.72474 35.166195 62.66474 38.516195 60.924744 C 40.979555 59.80073 43.670045 59.263315 46.376195 59.354744 C 49.576195 59.354744 51.966195 61.114744 54.996195 61.354744 C 58.556195 61.674744 61.326195 58.494744 63.626195 56.224744 C 66.416195 53.474744 69.416195 50.324744 70.036195 46.284744 C 70.676195 41.984744 68.876195 37.614744 69.316195 33.224744 C 69.826195 27.994744 72.606195 24.224744 74.496195 19.454744 Z M 65.576195 26.314744 C 64.460095 29.70598 63.945695 33.26628 64.056195 36.834744 C 64.176195 40.504744 66.006195 44.634744 63.986195 48.004744 C 62.466195 50.524744 58.066195 55.864744 55.206195 56.004744 C 53.596195 56.084744 51.706195 54.854744 50.066195 54.544744 C 48.348095 54.23363 46.597725 54.13956 44.856195 54.264744 C 41.957095 54.38687 39.108615 55.065887 36.466195 56.264744 C 33.466195 57.694744 32.226195 60.154744 30.036195 62.42474 C 27.296195 65.26474 23.306195 66.02474 19.516195 66.23474 C 14.996195 66.46474 10.516195 65.90474 8.646195 61.154744 C 7.0761945 57.154744 7.8861945 52.604744 7.8361945 48.384744 C 7.9358645 46.94729 7.6889345 45.506923 7.1161945 44.184744 C 6.4961945 43.004744 5.1161945 42.314744 4.5561945 41.184744 C 3.7061945 39.554744 4.3161945 37.184744 4.7361945 35.514744 C 5.2561945 33.374744 6.7361945 32.464744 7.7361945 30.804744 C 8.0181845 30.47692 8.207995 30.08004 8.286195 29.654744 C 8.916195 26.554744 8.406195 23.654744 9.646195 20.654744 C 11.566195 15.984744 14.316195 16.014744 18.646195 15.044744 C 21.360385 14.51257 23.835775 13.13307 25.716195 11.104744 C 27.936195 8.564744 29.716195 3.3247437 34.126195 5.674744 C 36.866195 7.114744 37.966195 10.224744 41.026195 11.464744 C 43.884035 12.474626 46.968695 12.658319 49.926195 11.994744 C 53.626195 11.354744 57.126195 9.994744 60.926195 10.154744 C 65.226195 10.354744 71.716195 12.254744 69.576195 17.804744 C 68.456195 20.714744 66.586195 23.284744 65.576195 26.314744 Z" fill="black"/>
            </g>
          </g>
          <g id="Group_8">
            <title>Graphic_722</title>
            <g id="Graphic_9">
              <path d="M 52.016195 30.414744 C 53.356195 26.654744 57.656195 20.784744 55.506195 16.654744 C 53.506195 12.844744 47.296195 13.654744 44.016195 14.704744 C 42.766385 15.139603 41.547005 15.657422 40.366195 16.254744 C 37.740145 17.629668 34.719265 18.05365 31.816195 17.454744 C 29.394415 16.90919 26.893305 16.810908 24.436195 17.164744 C 19.636195 18.094744 15.746195 21.774744 15.776195 26.824744 C 15.766965 26.87432 15.766965 26.92517 15.776195 26.974744 C 15.771485 27.01126 15.771485 27.04823 15.776195 27.084744 C 15.776195 27.084744 15.776195 27.084744 15.776195 27.134744 C 16.466195 30.234744 17.006195 33.384744 17.656195 36.494744 C 18.056195 38.494744 18.366195 39.954744 17.366195 41.704744 C 16.756195 42.774744 15.856195 43.604744 15.306195 44.704744 C 13.306195 48.784744 13.526195 55.024744 15.306195 59.124744 C 16.676195 62.324744 19.966195 62.78474 22.736195 60.954744 C 24.876195 59.534744 26.166195 57.234744 27.966195 55.454744 C 30.966195 52.514744 34.806195 51.394744 38.826195 50.704744 C 42.846195 50.014744 49.696195 50.364744 51.956195 46.054744 C 52.628735 44.574134 52.821055 42.92017 52.506195 41.324744 C 51.956195 37.514744 50.606195 34.414744 52.016195 30.414744 Z M 49.256195 38.914744 C 49.646195 40.484744 50.526195 42.524744 49.976195 44.144744 C 49.146195 46.594744 46.586195 46.934744 44.576195 47.314744 C 39.576195 48.314744 34.246195 48.394744 29.686195 50.974744 C 27.629735 52.26594 25.818385 53.911386 24.336195 55.834744 C 23.696195 56.584744 21.966195 59.004744 20.996195 59.174744 C 18.396195 59.584744 17.446195 57.564744 17.086195 55.594744 C 16.516195 52.394744 16.256195 49.004744 17.696195 45.984744 C 18.496195 44.324744 20.336195 42.894744 20.786195 41.054744 C 21.236195 39.214744 20.396195 36.934744 20.026195 35.124744 C 19.456195 32.344744 18.976195 29.534744 18.356195 26.764744 C 18.356195 22.244744 22.556195 19.694744 26.756195 19.494744 C 29.316195 19.384744 31.756195 20.264744 34.296195 20.434744 C 39.746195 20.804744 44.976195 14.854744 50.296195 16.554744 C 56.866195 18.634744 49.196195 29.034744 48.696195 33.134744 C 48.508915 35.079496 48.699065 37.042115 49.256195 38.914744 Z" fill="black"/>
            </g>
          </g>
          <g id="Group_6">
            <title>Graphic_721</title>
            <g id="Graphic_7">
              <path d="M 44.576195 21.194744 C 43.006195 20.764744 41.246195 21.924744 39.966195 22.574744 C 36.974565 24.34577 33.425345 24.924215 30.026195 24.194744 C 27.556195 23.824744 26.266195 23.574744 24.626195 26.024744 C 24.401495 26.28726 24.274335 26.6193 24.266195 26.964744 C 24.346195 29.304744 22.916195 30.544744 22.796195 32.554744 C 22.636195 35.404744 23.986195 37.874744 23.436195 40.904744 C 23.016195 43.284744 21.366195 48.064744 24.126195 49.664744 C 27.406195 51.574744 30.946195 47.664744 32.846195 45.664744 C 35.846195 42.534744 38.936195 43.284744 42.586195 42.474744 C 43.706195 42.214744 43.536195 42.034744 44.106195 40.924744 C 44.736275 39.69222 44.943595 38.2867 44.696195 36.924744 C 44.296195 35.314744 43.566195 33.584744 43.646195 31.924744 C 43.736195 29.774744 44.816195 28.504744 45.566195 26.714744 C 46.316195 24.924744 47.226195 21.914744 44.576195 21.194744 Z M 41.716195 31.834744 C 41.566195 36.044744 45.716195 39.734744 39.156195 41.054744 C 36.716195 41.554744 34.966195 41.234744 32.846195 42.914744 C 31.736195 43.784744 31.116195 44.994744 30.096195 45.914744 C 27.969525 48.58141 26.139525 48.45141 24.606195 45.524744 C 24.636865 44.11229 24.869215 42.711465 25.296195 41.364744 C 25.893505 39.44233 26.010245 37.40276 25.636195 35.424744 C 24.551305 33.79185 24.551305 31.66764 25.636195 30.034744 C 25.806195 29.644744 25.956195 29.244744 26.086195 28.834744 C 26.160775 28.324694 26.200865 27.810192 26.206195 27.294744 C 26.200845 27.241545 26.200845 27.187943 26.206195 27.134744 C 26.396195 25.594744 34.526195 26.694744 36.066195 26.324744 C 37.776195 25.914744 43.386195 21.904744 44.156195 24.724744 C 44.576195 26.024744 41.776195 29.934744 41.716195 31.834744 Z" fill="black"/>
            </g>
          </g>
          <g id="Group_4">
            <title>Graphic_720</title>
            <g id="Graphic_5">
              <path d="M 39.816195 30.034744 C 39.248535 28.883545 37.944355 28.296454 36.706195 28.634744 C 35.186195 28.904744 33.896195 29.564744 32.306195 29.714744 C 31.421935 29.685295 30.546635 29.899795 29.776195 30.334744 C 28.455565 31.432893 27.791015 33.132017 28.016195 34.834744 C 28.007165 34.897756 28.007165 34.96173 28.016195 35.024744 C 28.008985 35.05431 28.008985 35.085177 28.016195 35.114744 C 28.012675 35.131226 28.012675 35.14826 28.016195 35.164744 C 28.556195 36.344744 29.316195 35.874744 28.846195 37.584744 C 28.566415 38.272593 28.384635 38.99633 28.306195 39.734744 C 28.306195 40.784744 28.706195 42.104744 30.056195 42.054744 C 30.708995 41.88808 31.293085 41.52084 31.726195 41.004744 C 33.066195 40.004744 34.256195 40.004744 35.786195 39.654744 C 37.556195 39.264744 38.696195 38.404744 38.946195 36.554744 C 38.973755 35.738315 39.043845 34.923877 39.156195 34.114744 C 39.326195 33.424744 39.706195 32.804744 39.816195 32.114744 C 39.979375 31.43101 39.979375 30.718476 39.816195 30.034744 Z M 37.876195 34.494744 C 37.786195 35.044744 37.926195 35.674744 37.806195 36.214744 C 37.296195 38.444744 35.996195 38.374744 34.446195 38.604744 C 33.416625 38.689204 32.420605 39.01094 31.536195 39.544744 C 31.201835 39.92678 30.818525 40.263015 30.396195 40.544744 C 29.146195 40.544744 29.846195 38.814744 30.046195 38.224744 C 30.246195 37.634744 30.876195 37.034744 30.676195 36.224744 C 30.476195 35.414744 29.676195 35.294744 29.306195 34.634744 C 29.226975 33.81046 29.375715 32.98025 29.736195 32.234744 C 30.576195 30.784744 31.736195 31.144744 33.046195 30.994744 C 33.585415 30.981126 34.121715 30.910738 34.646195 30.784744 C 35.310675 30.444788 35.999185 30.154008 36.706195 29.914744 C 40.136195 29.594744 38.136195 32.994744 37.876195 34.494744 Z" fill="black"/>
            </g>
          </g>
        </g>
      </g>
    </g>
  </g>
</svg>
