<?xml version="1.0" encoding="UTF-8" standalone="no"?>
<!DOCTYPE svg PUBLIC "-//W3C//DTD SVG 1.1//EN" "http://www.w3.org/Graphics/SVG/1.1/DTD/svg11.dtd">
<svg version="1.1" xmlns:xl="http://www.w3.org/1999/xlink" xmlns="http://www.w3.org/2000/svg" xmlns:dc="http://purl.org/dc/elements/1.1/" viewBox="0 0 81 77" width="81" height="77">
  <defs/>
  <metadata> Produced by OmniGraffle 7.10.1 
    <dc:date>2021-09-15 12:23:38 +0000</dc:date>
  </metadata>
  <g id="Canvas_2" stroke-opacity="1" fill="none" stroke-dasharray="none" stroke="none" fill-opacity="1">
    <title>Canvas 2</title>
    <g id="Canvas_2: Layer 1">
      <title>Layer 1</title>
      <g id="Group_2">
        <g id="Graphic_3">
          <path d="M 66.01689 7105427e-21 C 62.75392 7105427e-21 59.345424 1.0679 56.65317 3.25 C 53.96092 5.4321 52.033733 8.84478 52.033733 13 L 52.033733 14 C 52.02355 14.721268 52.40205 15.392152 53.02429 15.75576 C 53.646535 16.119369 54.41612 16.119369 55.038364 15.75576 C 55.66061 15.392152 56.039104 14.721268 56.02892 14 L 56.02892 13 C 56.02892 10.04269 57.28162 7.91477 59.181375 6.375 C 61.08113 4.83523 63.67677 4 66.01689 4 C 69.38412 4 71.78596 4.98251 73.414234 6.625 C 75.04251 8.26749 76.00486 10.68615 76.00486 14 C 76.00486 20.42509 71.45131 25 64.89325 25 L 45.60398 25 C 46.50444 23.62992 47.03975 21.98437 47.03975 20.21875 C 47.03975 17.87991 46.28184 15.75193 44.76124 14.25 C 43.240647 12.74807 41.07215 12 38.674822 12 C 36.86248 12 35.0111 12.53237 33.399925 13.625 C 31.78875 14.71763 30.414216 16.45057 30.09141 18.6875 C 29.906746 19.425177 30.155883 20.203885 30.73427 20.696846 C 31.31266 21.189807 32.12023 21.31173 32.81809 21.01145 C 33.51595 20.711172 33.98336 20.040645 34.024173 19.28125 C 34.16458 18.30828 34.72404 17.54239 35.616006 16.9375 C 36.507973 16.33261 37.724284 16 38.674822 16 C 40.282265 16 41.291397 16.44113 41.952125 17.09375 C 42.612853 17.74637 43.04456 18.69579 43.04456 20.21875 C 43.04456 23.05774 41.123965 25 38.081786 25 L 14.079443 25 C 13.359039 24.9898 12.688955 25.36875 12.32578 25.991746 C 11.962605 26.61474 11.962605 27.38526 12.32578 28.008254 C 12.688955 28.63125 13.359039 29.0102 14.079443 29 L 64.89325 29 C 73.41742 29 80.00005 22.42809 80.00005 14 C 80.00005 9.88726 78.73379 6.28212 76.25456 3.78125 C 73.775335 1.28038 70.19079 7105427e-21 66.01689 7105427e-21 Z M 7.899386 36.00002 C 7.1856 36.033358 6.543818 36.445477 6.215856 37.081097 C 5.887895 37.716717 5.923595 38.47924 6.3095055 39.081357 C 6.695416 39.683474 7.372889 40.03368 8.08666 40.00002 L 60.02411 40.00002 C 68.91196 40.00002 76.00486 47.10822 76.00486 55.93752 C 76.00486 60.49512 74.66142 64.46922 72.0721 67.31252 C 69.48278 70.15582 65.616544 72.00002 60.02411 72.00002 C 55.594604 72.00002 52.052333 69.79752 49.9425 66.00002 C 49.59319 65.371 48.934335 64.977274 48.21555 64.96801 C 47.49677 64.95875 46.82801 65.33537 46.46265 65.95518 C 46.097285 66.575 46.091205 67.34319 46.44671 67.96872 C 49.19385 72.91332 54.226903 76.00002 60.02411 76.00002 C 66.51409 76.00002 71.62685 73.74192 75.00607 70.03122 C 78.38529 66.32062 80.00005 61.28942 80.00005 55.93752 C 80.00005 44.94782 71.0562 36.00002 60.02411 36.00002 L 8.08666 36.00002 C 8.02427 35.99709 7.961777 35.99709 7.899386 36.00002 Z M 1.9066034 48.00002 C 1.192817 48.03336 .5510347 48.44548 .22307333 49.0811 C -.10488808 49.716717 -.06918786 50.47924 .3167225 51.08136 C .7026329 51.683474 1.380106 52.03368 2.0938774 52.00002 L 45.042154 52.00002 C 45.762557 52.01022 46.43264 51.631266 46.79581 51.00827 C 47.158986 50.38528 47.158986 49.61476 46.79581 48.99177 C 46.43264 48.368774 45.762557 47.98982 45.042154 48.00002 L 2.0938774 48.00002 C 2.031487 47.99709 1.9689938 47.99709 1.9066034 48.00002 Z" fill="white"/>
        </g>
      </g>
    </g>
  </g>
</svg>
