<?xml version="1.0" encoding="UTF-8" standalone="no"?>
<!DOCTYPE svg PUBLIC "-//W3C//DTD SVG 1.1//EN" "http://www.w3.org/Graphics/SVG/1.1/DTD/svg11.dtd">
<svg version="1.1" xmlns:xl="http://www.w3.org/1999/xlink" xmlns="http://www.w3.org/2000/svg" xmlns:dc="http://purl.org/dc/elements/1.1/" viewBox="0 0 32 32" width="32" height="32">
  <defs/>
  <metadata> Produced by OmniGraffle 7.10.1 
    <dc:date>2021-09-15 12:23:38 +0000</dc:date>
  </metadata>
  <g id="Canvas_1" stroke-opacity="1" fill="none" stroke-dasharray="none" stroke="none" fill-opacity="1">
    <title>Canvas 1</title>
    <g id="Canvas_1: Layer 1">
      <title>Layer 1</title>
      <g id="Graphic_2">
        <path d="M 31 30 L 2 30 L 2 1 C 2 .44771525 1.5522847 0 1 0 C .44771525 0 0 .44771525 0 1 L 0 31 C 0 31.552285 .44771525 32 1 32 L 31 32 C 31.552285 32 32 31.552285 32 31 C 32 30.447715 31.552285 30 31 30 Z" fill="white"/>
      </g>
      <g id="Graphic_3">
        <path d="M 30.76 4.35 C 30.58903 4.1469636 30.34435 4.02023 30.079875 3.9977213 C 29.815398 3.9752126 29.552823 4.058776 29.35 4.23 L 16.7 14.95 L 10.14 14 C 9.689017 13.938396 9.253329 14.189122 9.08 14.61 L 4.08 26.61 C 3.8673704 27.120863 4.1091366 27.70737 4.62 27.92 C 5.1308634 28.13263 5.7173704 27.890863 5.93 27.38 L 10.63 16.09 L 16.86 16.98 C 17.144137 17.020239 17.431867 16.93647 17.65 16.75 L 30.65 5.75 C 31.06329 5.3919075 31.112292 4.7682454 30.76 4.35 Z" fill="white"/>
      </g>
      <g id="Graphic_4">
        <path d="M 30 28 C 30.552285 28 31 27.552285 31 27 L 31 10 C 31 9.447715 30.552285 9 30 9 C 29.447715 9 29 9.447715 29 10 L 29 27 C 29 27.552285 29.447715 28 30 28 Z" fill="white"/>
      </g>
      <g id="Graphic_5">
        <path d="M 20 18 L 20 27 C 20 27.552285 20.447715 28 21 28 C 21.552285 28 22 27.552285 22 27 L 22 18 C 22 17.447715 21.552285 17 21 17 C 20.447715 17 20 17.447715 20 18 Z" fill="white"/>
      </g>
      <g id="Graphic_6">
        <path d="M 11 20 L 11 27 C 11 27.552285 11.447715 28 12 28 C 12.552285 28 13 27.552285 13 27 L 13 20 C 13 19.447715 12.552285 19 12 19 C 11.447715 19 11 19.447715 11 20 Z" fill="white"/>
      </g>
    </g>
  </g>
</svg>
