<?xml version="1.0" encoding="UTF-8" standalone="no"?>
<!DOCTYPE svg PUBLIC "-//W3C//DTD SVG 1.1//EN" "http://www.w3.org/Graphics/SVG/1.1/DTD/svg11.dtd">
<svg version="1.1" xmlns="http://www.w3.org/2000/svg" xmlns:xl="http://www.w3.org/1999/xlink" xmlns:dc="http://purl.org/dc/elements/1.1/" viewBox="104 -22 77 72" width="77" height="72">
  <defs/>
  <metadata> Produced by OmniGraffle 7.10.1 
    <dc:date>2021-10-06 16:28:22 +0000</dc:date>
  </metadata>
  <g id="Canvas_1" stroke-opacity="1" stroke-dasharray="none" fill="none" fill-opacity="1" stroke="none">
    <title>Canvas 1</title>
    <g id="Canvas_1: Layer 1">
      <title>Layer 1</title>
      <g id="Graphic_723">
        <path d="M 179.4962 -2.5452567 C 182.5962 -10.385257 175.8862 -15.635257 168.7362 -16.755257 C 164.2062 -17.475257 160.1962 -16.435257 155.8062 -15.485257 C 153.2662 -14.925257 150.5662 -14.305257 148.0662 -15.365257 C 145.7162 -16.365257 144.6862 -18.705257 142.6862 -20.165257 C 139.69237 -22.31108 135.74815 -22.59695 132.4762 -20.905257 C 128.0362 -18.535257 127.6862 -13.205257 122.2662 -11.965257 C 118.0062 -10.965257 114.5162 -10.965257 111.8062 -7.035257 C 110.51561 -5.110222 109.5526 -2.9848257 108.9562 -.7452567 C 108.3762 1.5147433 108.7662 3.8547433 108.3562 6.104743 C 107.4462 7.634743 105.9662 8.604743 105.2662 10.424743 C 104.72556 12.050669 104.34378 13.725163 104.1262 15.424743 C 103.5562 19.134743 104.9962 20.924743 106.8562 23.824743 C 109.1962 27.474743 107.1462 33.824743 108.0362 38.164743 C 108.6285 41.58833 110.44449 44.680124 113.1462 46.864743 C 118.8562 51.064743 129.4162 50.074743 135.3162 46.664743 C 138.6962 44.724743 140.1662 40.664743 143.5162 38.924743 C 145.97956 37.800726 148.67005 37.263314 151.3762 37.354743 C 154.5762 37.354743 156.9662 39.114743 159.9962 39.354743 C 163.5562 39.674743 166.3262 36.494743 168.6262 34.224743 C 171.4162 31.474743 174.4162 28.324743 175.0362 24.284743 C 175.6762 19.984743 173.8762 15.614743 174.3162 11.224743 C 174.8262 5.994743 177.6062 2.2247433 179.4962 -2.5452567 Z M 170.5762 4.3147433 C 169.4601 7.705981 168.9457 11.266279 169.0562 14.834743 C 169.1762 18.504743 171.0062 22.634743 168.9862 26.004743 C 167.4662 28.524743 163.0662 33.864743 160.2062 34.004743 C 158.5962 34.084743 156.7062 32.854743 155.0662 32.544743 C 153.3481 32.23363 151.59773 32.13956 149.8562 32.264743 C 146.9571 32.386867 144.10862 33.065886 141.4662 34.264743 C 138.4662 35.694743 137.2262 38.154743 135.0362 40.424743 C 132.2962 43.264743 128.3062 44.024743 124.5162 44.234743 C 119.9962 44.464743 115.5162 43.904743 113.6462 39.154743 C 112.0762 35.154743 112.8862 30.604743 112.8362 26.384743 C 112.93587 24.947292 112.68894 23.506922 112.1162 22.184743 C 111.4962 21.004743 110.1162 20.314743 109.5562 19.184743 C 108.7062 17.554743 109.3162 15.184743 109.7362 13.514743 C 110.2562 11.374743 111.7362 10.464743 112.7362 8.804743 C 113.01819 8.476919 113.208 8.080041 113.2862 7.654743 C 113.9162 4.554743 113.4062 1.6547433 114.6462 -1.3452567 C 116.5662 -6.015257 119.3162 -5.985257 123.6462 -6.955257 C 126.36039 -7.48743 128.83578 -8.86693 130.7162 -10.895257 C 132.9362 -13.435257 134.7162 -18.675257 139.1262 -16.325257 C 141.8662 -14.885257 142.9662 -11.775257 146.0262 -10.535257 C 148.88404 -9.525375 151.9687 -9.341682 154.9262 -10.005257 C 158.6262 -10.645257 162.1262 -12.005257 165.9262 -11.845257 C 170.2262 -11.645257 176.7162 -9.745257 174.5762 -4.1952567 C 173.4562 -1.2852567 171.5862 1.2847433 170.5762 4.3147433 Z" fill="white"/>
      </g>
      <g id="Graphic_722">
        <path d="M 157.0162 8.414743 C 158.3562 4.654743 162.6562 -1.2152567 160.5062 -5.345257 C 158.5062 -9.155257 152.2962 -8.345257 149.0162 -7.295257 C 147.76639 -6.860398 146.54701 -6.342579 145.3662 -5.745257 C 142.74015 -4.3703326 139.71927 -3.94635 136.8162 -4.545257 C 134.39442 -5.0908114 131.89331 -5.189093 129.4362 -4.835257 C 124.6362 -3.9052567 120.7462 -.22525674 120.7762 4.824743 C 120.76697 4.874318 120.76697 4.9251687 120.7762 4.974743 C 120.77149 5.011259 120.77149 5.048228 120.7762 5.084743 C 120.7762 5.084743 120.7762 5.084743 120.7762 5.134743 C 121.4662 8.234743 122.0062 11.384743 122.6562 14.494743 C 123.0562 16.494743 123.3662 17.954743 122.3662 19.704743 C 121.7562 20.774743 120.8562 21.604743 120.3062 22.704743 C 118.3062 26.784743 118.5262 33.024743 120.3062 37.124743 C 121.6762 40.324743 124.9662 40.784743 127.7362 38.954743 C 129.8762 37.534743 131.1662 35.234743 132.9662 33.454743 C 135.9662 30.514743 139.8062 29.394743 143.8262 28.704743 C 147.8462 28.014743 154.6962 28.364743 156.9562 24.054743 C 157.62874 22.574133 157.82106 20.92017 157.5062 19.324743 C 156.9562 15.514743 155.6062 12.414743 157.0162 8.414743 Z M 154.2562 16.914743 C 154.6462 18.484743 155.5262 20.524743 154.9762 22.144743 C 154.1462 24.594743 151.5862 24.934743 149.5762 25.314743 C 144.5762 26.314743 139.2462 26.394743 134.6862 28.974743 C 132.62974 30.26594 130.81839 31.911385 129.3362 33.834743 C 128.6962 34.584743 126.9662 37.004743 125.9962 37.174743 C 123.3962 37.584743 122.4462 35.564743 122.0862 33.594743 C 121.5162 30.394743 121.2562 27.004743 122.6962 23.984743 C 123.4962 22.324743 125.3362 20.894743 125.7862 19.054743 C 126.2362 17.214743 125.3962 14.934743 125.0262 13.124743 C 124.4562 10.344743 123.9762 7.534743 123.3562 4.764743 C 123.3562 .24474326 127.5562 -2.3052567 131.7562 -2.5052567 C 134.3162 -2.6152567 136.7562 -1.7352567 139.2962 -1.5652567 C 144.7462 -1.1952567 149.9762 -7.145257 155.2962 -5.445257 C 161.8662 -3.3652567 154.1962 7.034743 153.6962 11.134743 C 153.50892 13.079495 153.69907 15.042114 154.2562 16.914743 Z" fill="white"/>
      </g>
      <g id="Graphic_721">
        <path d="M 149.5762 -.8052567 C 148.0062 -1.2352567 146.2462 -.07525674 144.9662 .57474326 C 141.97457 2.34577 138.42535 2.924214 135.0262 2.1947433 C 132.5562 1.8247433 131.2662 1.5747433 129.6262 4.0247433 C 129.4015 4.2872587 129.27434 4.619298 129.2662 4.964743 C 129.3462 7.304743 127.9162 8.544743 127.7962 10.554743 C 127.6362 13.404743 128.9862 15.874743 128.4362 18.904743 C 128.0162 21.284743 126.3662 26.064743 129.1262 27.664743 C 132.4062 29.574743 135.9462 25.664743 137.8462 23.664743 C 140.8462 20.534743 143.9362 21.284743 147.5862 20.474743 C 148.7062 20.214743 148.5362 20.034743 149.1062 18.924743 C 149.73628 17.692218 149.9436 16.286698 149.6962 14.924743 C 149.2962 13.314743 148.5662 11.584743 148.6462 9.924743 C 148.7362 7.774743 149.8162 6.504743 150.5662 4.714743 C 151.3162 2.9247433 152.2262 -.08525674 149.5762 -.8052567 Z M 146.7162 9.834743 C 146.5662 14.044743 150.7162 17.734743 144.1562 19.054743 C 141.7162 19.554743 139.9662 19.234743 137.8462 20.914743 C 136.7362 21.784743 136.1162 22.994743 135.0962 23.914743 C 132.96953 26.58141 131.13953 26.45141 129.6062 23.524743 C 129.63687 22.11229 129.86922 20.711464 130.2962 19.364743 C 130.89351 17.442328 131.01025 15.402759 130.6362 13.424743 C 129.55131 11.791848 129.55131 9.667638 130.6362 8.034743 C 130.8062 7.644743 130.9562 7.244743 131.0862 6.834743 C 131.16078 6.324693 131.20087 5.810191 131.2062 5.294743 C 131.20085 5.241544 131.20085 5.1879426 131.2062 5.134743 C 131.3962 3.5947433 139.5262 4.694743 141.0662 4.3247433 C 142.7762 3.9147433 148.3862 -.09525674 149.1562 2.7247433 C 149.5762 4.0247433 146.7762 7.934743 146.7162 9.834743 Z" fill="white"/>
      </g>
      <g id="Graphic_720">
        <path d="M 144.8162 8.034743 C 144.24854 6.883544 142.94436 6.2964536 141.7062 6.634743 C 140.1862 6.904743 138.8962 7.564743 137.3062 7.714743 C 136.42194 7.685294 135.54664 7.899794 134.7762 8.334743 C 133.45557 9.432892 132.79102 11.132016 133.0162 12.834743 C 133.00717 12.897755 133.00717 12.961731 133.0162 13.024743 C 133.00899 13.05431 133.00899 13.085176 133.0162 13.114743 C 133.01268 13.131225 133.01268 13.148261 133.0162 13.164743 C 133.5562 14.344743 134.3162 13.874743 133.8462 15.584743 C 133.56642 16.272592 133.38464 16.996328 133.3062 17.734743 C 133.3062 18.784743 133.7062 20.104743 135.0562 20.054743 C 135.709 19.888077 136.29309 19.520838 136.7262 19.004743 C 138.0662 18.004743 139.2562 18.004743 140.7862 17.654743 C 142.5562 17.264743 143.6962 16.404743 143.9462 14.554743 C 143.97376 13.738314 144.04385 12.923876 144.1562 12.114743 C 144.3262 11.424743 144.7062 10.804743 144.8162 10.114743 C 144.97938 9.431011 144.97938 8.718475 144.8162 8.034743 Z M 142.8762 12.494743 C 142.7862 13.044743 142.9262 13.674743 142.8062 14.214743 C 142.2962 16.444743 140.9962 16.374743 139.4462 16.604743 C 138.41663 16.689203 137.42061 17.010941 136.5362 17.544743 C 136.20184 17.926777 135.81853 18.263014 135.3962 18.544743 C 134.1462 18.544743 134.8462 16.814743 135.0462 16.224743 C 135.2462 15.634743 135.8762 15.034743 135.6762 14.224743 C 135.4762 13.414743 134.6762 13.294743 134.3062 12.634743 C 134.22698 11.810458 134.37572 10.98025 134.7362 10.234743 C 135.5762 8.784743 136.7362 9.144743 138.0462 8.994743 C 138.58542 8.981125 139.12172 8.910737 139.6462 8.784743 C 140.31068 8.444787 140.99919 8.154007 141.7062 7.914743 C 145.1362 7.594743 143.1362 10.994743 142.8762 12.494743 Z" fill="white"/>
      </g>
    </g>
  </g>
</svg>
