<?xml version="1.0" encoding="UTF-8" standalone="no"?>
<!DOCTYPE svg PUBLIC "-//W3C//DTD SVG 1.1//EN" "http://www.w3.org/Graphics/SVG/1.1/DTD/svg11.dtd">
<svg version="1.1" xmlns="http://www.w3.org/2000/svg" xmlns:xl="http://www.w3.org/1999/xlink" xmlns:dc="http://purl.org/dc/elements/1.1/" viewBox="-2 -1 91 76" width="91" height="76">
  <defs/>
  <metadata> Produced by OmniGraffle 7.10.1 
    <dc:date>2021-10-06 16:23:24 +0000</dc:date>
  </metadata>
  <g id="Canvas_1" stroke-opacity="1" stroke-dasharray="none" fill="none" fill-opacity="1" stroke="none">
    <title>Canvas 1</title>
    <g id="Canvas_1: Layer 1">
      <title>Layer 1</title>
      <g id="Group_521">
        <g id="Graphic_718">
          <path d="M 17.414722 18.129 C 17.596722 18.17 18.009722 18.264 18.801722 18.461 C 19.004722 15.814 18.368722 13.334 17.586722 11.376 C 17.537722 11.394 17.487722 11.411 17.438722 11.428 C 17.318722 11.47 17.170722 11.521 17.024722 11.576 C 18.098722 14.41 17.547722 17.496 17.414722 18.129 Z" fill="white"/>
        </g>
        <g id="Graphic_717">
          <path d="M 15.031722 7.665 C 15.233722 7.897 15.785722 8.633 16.585722 10.497 C 16.734722 10.44 16.892722 10.385 17.054722 10.329 C 17.076722 10.322 17.098722 10.313 17.122722 10.306 C 16.386722 8.725 15.639722 7.633 15.400722 7.298 Z" fill="white"/>
        </g>
        <g id="Graphic_716">
          <path d="M 17.163722 18.191 C 17.155722 18.222 17.161722 18.255 17.178722 18.281 C 17.195722 18.308 17.222722 18.326 17.254722 18.333 C 17.257722 18.333 17.656722 18.414 18.878722 18.72 C 18.888722 18.721 18.898722 18.723 18.907722 18.723 C 18.930722 18.723 18.954722 18.716 18.974722 18.701 C 19.002722 18.681 19.020722 18.651 19.023722 18.617 C 19.262722 15.883 18.610722 13.316 17.804722 11.297 C 17.732722 11.323 17.659722 11.35 17.586722 11.375 C 18.368722 13.333 19.004722 15.813 18.801722 18.46 C 18.009722 18.263 17.596722 18.168 17.414722 18.128 C 17.547722 17.495 18.098722 14.409 17.023722 11.575 C 16.949722 11.604 16.875722 11.632 16.806722 11.661 C 17.978722 14.752 17.171722 18.157 17.163722 18.191 Z" fill="white"/>
        </g>
        <g id="Graphic_715">
          <path d="M 15.031722 7.665 L 15.399722 7.297 C 15.638722 7.632 16.385722 8.724 17.121722 10.305 C 17.188722 10.281 17.263722 10.255 17.340722 10.227 C 16.441722 8.292 15.524722 7.074 15.504722 7.049 C 15.483722 7.022 15.453722 7.005 15.420722 7.003 C 15.385722 7.001 15.354722 7.013 15.330722 7.037 L 14.787722 7.58 C 14.765722 7.602 14.752722 7.634 14.753722 7.665 C 14.753722 7.696 14.768722 7.727 14.791722 7.748 C 14.798722 7.755 15.398722 8.323 16.370722 10.582 C 16.439722 10.553 16.512722 10.524 16.586722 10.496 C 15.786722 8.633 15.234722 7.897 15.031722 7.665 Z" fill="white"/>
        </g>
        <g id="Graphic_714">
          <circle cx="13.837722" cy="8.312" r="0.66000105461525" fill="white"/>
        </g>
        <g id="Graphic_713">
          <path d="M 13.837722 7.419 C 13.345722 7.419 12.944722 7.82 12.944722 8.312 C 12.944722 8.804 13.345722 9.204 13.837722 9.204 C 14.329722 9.204 14.730722 8.804 14.730722 8.312 C 14.729722 7.82 14.328722 7.419 13.837722 7.419 Z M 13.837722 8.972 C 13.473722 8.972 13.177722 8.677 13.177722 8.312 C 13.177722 7.948 13.473722 7.652 13.837722 7.652 C 14.200722 7.652 14.497722 7.948 14.497722 8.312 C 14.496722 8.676 14.200722 8.972 13.837722 8.972 Z" fill="white"/>
        </g>
        <g id="Graphic_712">
          <path d="M 13.925722 6.72 C 13.435722 6.578 12.692722 6.411 11.920722 6.411 C 10.826722 6.411 9.988722 6.738 9.428722 7.382 C 8.719722 8.195 8.456722 9.518 8.642722 11.316 C 9.882722 8.296 10.851722 6.939 13.925722 6.72 Z" fill="white"/>
        </g>
        <g id="Graphic_711">
          <path d="M 8.568722 11.892 C 8.572722 11.892 8.577722 11.892 8.583722 11.892 C 8.630722 11.892 8.673722 11.864 8.691722 11.819 C 10.058722 8.401 10.972722 7.001 14.562722 6.924 C 14.617722 6.923 14.664722 6.883 14.674722 6.828 C 14.685722 6.774 14.655722 6.72 14.604722 6.7 C 14.552722 6.679 13.304722 6.178 11.922722 6.178 C 10.759722 6.178 9.860722 6.531 9.255722 7.228 C 8.443722 8.161 8.178722 9.696 8.468722 11.791 C 8.474722 11.845 8.515722 11.885 8.568722 11.892 Z M 9.429722 7.382 C 9.989722 6.738 10.827722 6.411 11.921722 6.411 C 12.693722 6.411 13.436722 6.578 13.926722 6.72 C 10.852722 6.939 9.883722 8.296 8.644722 11.315 C 8.457722 9.517 8.719722 8.195 9.429722 7.382 Z" fill="white"/>
        </g>
        <g id="Graphic_710">
          <path d="M 14.447722 5.808 C 14.082722 5.204 13.332722 4.148 12.433722 3.913 C 12.269722 3.871 12.091722 3.849 11.901722 3.849 C 11.166722 3.849 10.401722 4.171 9.937722 4.409 C 9.960722 4.409 9.984722 4.408 10.009722 4.408 C 10.892722 4.407 12.593722 4.597 14.447722 5.808 Z" fill="white"/>
        </g>
        <g id="Graphic_709">
          <path d="M 9.454722 4.673 C 9.456722 4.673 9.661722 4.641 10.009722 4.641 C 10.929722 4.641 12.766722 4.854 14.724722 6.283 C 14.745722 6.297 14.769722 6.305 14.792722 6.305 C 14.793722 6.305 14.793722 6.305 14.794722 6.305 C 14.858722 6.305 14.910722 6.253 14.910722 6.188 C 14.910722 6.162 14.901722 6.138 14.886722 6.118 C 14.774722 5.894 13.812722 4.033 12.492722 3.689 C 12.309722 3.642 12.111722 3.618 11.901722 3.618 C 10.674722 3.618 9.424722 4.427 9.372722 4.462 C 9.326722 4.492 9.307722 4.549 9.327722 4.601 C 9.347722 4.651 9.399722 4.681 9.454722 4.673 Z M 11.901722 3.849 C 12.091722 3.849 12.270722 3.871 12.433722 3.913 C 13.332722 4.147 14.082722 5.203 14.447722 5.808 C 12.593722 4.598 10.891722 4.408 10.008722 4.408 C 9.983722 4.408 9.960722 4.409 9.936722 4.409 C 10.401722 4.171 11.166722 3.849 11.901722 3.849 Z" fill="white"/>
        </g>
        <g id="Graphic_708">
          <path d="M 20.223722 -.386 C 19.697722 -.507 19.206722 -.568 18.759722 -.568 C 17.674722 -.568 16.815722 -.208 16.206722 .503 C 15.020722 1.891 15.060722 4.276 15.143722 5.313 C 15.967722 3.078 17.487722 .491 20.223722 -.386 Z" fill="white"/>
        </g>
        <g id="Graphic_707">
          <path d="M 15.073722 5.955 C 15.076722 5.955 15.080722 5.955 15.083722 5.955 C 15.132722 5.955 15.177722 5.923 15.193722 5.875 C 15.989722 3.489 17.590722 .484 20.699722 -.278 C 20.751722 -.291 20.787722 -.336 20.788722 -.389 C 20.789722 -.442 20.754722 -.489 20.704722 -.503 C 19.998722 -.699 19.344722 -.8 18.760722 -.8 C 17.604722 -.8 16.685722 -.412 16.031722 .353 C 15.188722 1.339 14.944722 2.787 14.888722 3.826 C 14.828722 4.945 14.963722 5.82 14.969722 5.857 C 14.977722 5.909 15.020722 5.949 15.073722 5.955 Z M 16.207722 .504 C 16.815722 -.207 17.675722 -.567 18.760722 -.567 C 19.207722 -.567 19.698722 -.506 20.224722 -.385 C 17.488722 .491 15.968722 3.079 15.144722 5.315 C 15.060722 4.277 15.021722 1.892 16.207722 .504 Z" fill="white"/>
        </g>
        <g id="Graphic_706">
          <path d="M 16.135722 5.344 C 16.869722 4.94 18.341722 4.245 19.778722 4.245 C 19.931722 4.245 20.080722 4.253 20.226722 4.269 C 19.768722 3.842 19.280722 3.627 18.774722 3.627 C 17.631722 3.628 16.623722 4.714 16.135722 5.344 Z" fill="white"/>
        </g>
        <g id="Graphic_705">
          <path d="M 18.774722 3.394 C 18.054722 3.394 17.278722 3.789 16.534722 4.534 C 15.979722 5.09 15.638722 5.637 15.624722 5.66 C 15.595722 5.706 15.603722 5.766 15.642722 5.804 C 15.664722 5.825 15.694722 5.837 15.723722 5.837 C 15.745722 5.837 15.767722 5.831 15.787722 5.818 C 15.807722 5.805 17.866722 4.477 19.779722 4.477 C 20.044722 4.477 20.297722 4.502 20.531722 4.553 C 20.540722 4.555 20.548722 4.555 20.556722 4.555 C 20.557722 4.555 20.557722 4.555 20.558722 4.555 C 20.622722 4.555 20.674722 4.503 20.674722 4.439 C 20.674722 4.402 20.657722 4.369 20.630722 4.347 C 20.060722 3.716 19.436722 3.394 18.774722 3.394 Z M 19.779722 4.246 C 18.342722 4.246 16.870722 4.94 16.136722 5.345 C 16.623722 4.714 17.632722 3.628 18.775722 3.628 C 19.281722 3.628 19.769722 3.843 20.227722 4.27 C 20.081722 4.254 19.931722 4.246 19.779722 4.246 Z" fill="white"/>
        </g>
        <g id="Graphic_704">
          <path d="M 17.154722 6.444 C 17.637722 6.469 18.075722 6.49 18.478722 6.516 C 19.073722 5.921 19.855722 5.423 20.614722 5.11 C 18.780722 5.129 16.832722 5.991 16.036722 6.386 C 16.435722 6.408 16.807722 6.427 17.154722 6.444 Z" fill="white"/>
        </g>
        <g id="Graphic_703">
          <path d="M 23.702722 6.464 C 23.025722 6.205 22.374722 6.02 21.831722 6.02 C 21.614722 6.02 21.421722 6.05 21.257722 6.109 C 20.859722 6.254 20.472722 6.452 20.121722 6.681 C 21.678722 6.928 22.789722 7.474 24.599722 8.995 C 24.468722 7.936 24.168722 7.091 23.702722 6.464 Z" fill="white"/>
        </g>
        <g id="Graphic_702">
          <path d="M 24.747722 9.39 C 24.747722 9.39 24.748722 9.39 24.749722 9.39 C 24.808722 9.392 24.865722 9.338 24.865722 9.273 C 24.865722 9.261 24.864722 9.25 24.861722 9.24 C 24.777722 8.357 24.557722 7.401 24.069722 6.61 C 23.946722 6.559 23.824722 6.51 23.702722 6.465 C 24.168722 7.092 24.469722 7.937 24.600722 8.996 C 22.790722 7.475 21.679722 6.928 20.122722 6.682 C 20.026722 6.744 19.934722 6.809 19.846722 6.876 C 21.582722 7.108 22.668722 7.646 24.671722 9.363 C 24.693722 9.38 24.719722 9.39 24.747722 9.39 Z" fill="white"/>
        </g>
        <g id="Graphic_701">
          <path d="M 17.154722 6.444 C 16.806722 6.427 16.435722 6.408 16.036722 6.386 C 16.832722 5.991 18.780722 5.129 20.614722 5.11 C 20.696722 5.076 20.777722 5.045 20.858722 5.014 C 20.986722 4.968 21.123722 4.933 21.263722 4.907 C 21.076722 4.887 20.882722 4.876 20.676722 4.876 C 18.229722 4.876 15.574722 6.361 15.548722 6.376 C 15.504722 6.401 15.481722 6.453 15.492722 6.504 C 15.504722 6.554 15.547722 6.59 15.598722 6.593 C 16.161722 6.626 16.672722 6.652 17.141722 6.675 C 17.548722 6.696 17.922722 6.715 18.270722 6.735 C 18.335722 6.66 18.405722 6.587 18.477722 6.514 C 18.076722 6.49 17.637722 6.469 17.154722 6.444 Z" fill="white"/>
        </g>
        <g id="Graphic_700">
          <path d="M 5.888722 36.409 C 6.078722 36.636 6.580722 37.343 7.287722 39.156 C 8.074722 41.173 7.703722 43.384 7.596722 43.911 C 7.737722 43.942 8.021722 44.008 8.525722 44.134 C 8.808722 40.232 6.557722 36.835 6.104722 36.195 Z" fill="white"/>
        </g>
        <g id="Graphic_699">
          <path d="M 6.126722 35.899 C 6.091722 35.897 6.060722 35.909 6.036722 35.933 L 5.645722 36.324 C 5.623722 36.346 5.610722 36.377 5.612722 36.409 C 5.612722 36.441 5.626722 36.472 5.650722 36.493 C 5.656722 36.497 6.198722 37.003 7.072722 39.24 C 7.941722 41.468 7.352722 43.948 7.346722 43.972 C 7.339722 44.003 7.344722 44.035 7.361722 44.063 C 7.378722 44.089 7.405722 44.108 7.436722 44.114 C 7.439722 44.115 7.725722 44.173 8.603722 44.392 C 8.612722 44.394 8.622722 44.395 8.632722 44.395 C 8.656722 44.395 8.679722 44.388 8.699722 44.374 C 8.727722 44.354 8.744722 44.323 8.747722 44.29 C 9.138722 39.829 6.240722 35.982 6.211722 35.945 C 6.190722 35.918 6.160722 35.902 6.126722 35.899 Z M 8.526722 44.134 C 8.022722 44.008 7.738722 43.943 7.597722 43.911 C 7.704722 43.384 8.075722 41.173 7.288722 39.156 C 6.581722 37.343 6.079722 36.635 5.889722 36.409 L 6.105722 36.194 C 6.558722 36.835 8.809722 40.232 8.526722 44.134 Z" fill="white"/>
        </g>
        <g id="Graphic_698">
          <circle cx="4.985722" cy="36.874" r="0.442000706272638" fill="white"/>
        </g>
        <g id="Graphic_697">
          <path d="M 4.985722 36.199 C 4.612722 36.199 4.311722 36.502 4.311722 36.873 C 4.311722 37.244 4.613722 37.547 4.985722 37.547 C 5.357722 37.547 5.660722 37.244 5.660722 36.873 C 5.660722 36.502 5.356722 36.199 4.985722 36.199 Z M 4.985722 37.316 C 4.741722 37.316 4.544722 37.118 4.544722 36.874 C 4.544722 36.63 4.741722 36.433 4.985722 36.433 C 5.229722 36.433 5.427722 36.63 5.427722 36.874 C 5.427722 37.118 5.228722 37.316 4.985722 37.316 Z" fill="white"/>
        </g>
        <g id="Graphic_696">
          <path d="M 1.3497218 38.709 C 1.3187218 38.722 1.2877218 38.733 1.2587218 38.743 C 1.2617218 38.795 1.2647218 38.847 1.2697218 38.899 C 1.2967218 38.835 1.3227218 38.772 1.3497218 38.709 Z" fill="white"/>
        </g>
        <g id="Graphic_695">
          <path d="M 1.8387218 36.226 C 1.5797218 36.524 1.4047218 36.92 1.3137218 37.409 C 1.6217218 37.207 2.0407218 36.887 2.4797218 36.465 C 2.851722 36.107 3.108722 35.8 3.279722 35.556 C 2.661722 35.613 2.1777218 35.837 1.8387218 36.226 Z" fill="white"/>
        </g>
        <g id="Graphic_694">
          <path d="M 4.567722 35.644 C 4.550722 35.681 4.532722 35.717 4.514722 35.754 C 4.625722 35.737 4.741722 35.723 4.862722 35.711 C 4.771722 35.688 4.672722 35.665 4.567722 35.644 Z" fill="white"/>
        </g>
        <g id="Graphic_693">
          <path d="M 5.619722 35.813 C 5.628722 35.759 5.599722 35.705 5.548722 35.684 C 5.524722 35.675 5.165722 35.53 4.654722 35.422 C 4.630722 35.495 4.601722 35.568 4.567722 35.643 C 4.671722 35.664 4.771722 35.687 4.861722 35.71 C 4.740722 35.722 4.625722 35.736 4.513722 35.753 C 4.469722 35.838 4.419722 35.926 4.365722 36.014 C 4.698722 35.951 5.073722 35.916 5.506722 35.908 C 5.561722 35.907 5.609722 35.867 5.619722 35.813 Z" fill="white"/>
        </g>
        <g id="Graphic_692">
          <path d="M 1.1917218 39.481 C 1.1957218 39.482 1.2007218 39.482 1.2057218 39.482 C 1.2527218 39.482 1.2967218 39.455 1.3137218 39.409 C 1.4377218 39.101 1.5547218 38.816 1.6707218 38.555 C 1.5567218 38.618 1.4487218 38.669 1.3497218 38.71 C 1.3237218 38.773 1.2967218 38.836 1.2687218 38.9 C 1.2637218 38.847 1.2607218 38.796 1.2577218 38.744 C 1.2267218 38.755 1.1957218 38.765 1.1677218 38.773 C 1.1307218 38.81 1.0867218 38.87 1.0407218 38.948 C 1.0537218 39.09 1.0697218 39.234 1.0897218 39.383 C 1.0967218 39.434 1.1387218 39.475 1.1917218 39.481 Z" fill="white"/>
        </g>
        <g id="Graphic_691">
          <path d="M 1.8387218 36.226 C 2.1777218 35.837 2.661722 35.613 3.278722 35.556 C 3.341722 35.466 3.392722 35.385 3.434722 35.313 C 2.671722 35.347 2.0747218 35.601 1.6627218 36.073 C 1.3417218 36.443 1.1387218 36.943 1.0537218 37.566 C 1.1267218 37.527 1.2147218 37.474 1.3137218 37.409 C 1.4047218 36.92 1.5797218 36.524 1.8387218 36.226 Z" fill="white"/>
        </g>
        <g id="Graphic_690">
          <path d="M 3.967722 33.741 C 3.942722 33.735 3.914722 33.731 3.889722 33.726 C 4.020722 33.871 4.147722 33.989 4.266722 34.068 C 4.473722 34.206 4.612722 34.396 4.683722 34.617 C 4.891722 34.717 5.104722 34.832 5.321722 34.967 C 5.041722 34.53 4.547722 33.892 3.967722 33.741 Z" fill="white"/>
        </g>
        <g id="Graphic_689">
          <path d="M 2.677722 34.054 C 2.643722 34.011 2.611722 33.966 2.578722 33.92 C 2.4847218 33.958 2.3977218 33.997 2.3187218 34.034 C 2.4247218 34.035 2.545722 34.042 2.677722 34.054 Z" fill="white"/>
        </g>
        <g id="Graphic_688">
          <path d="M 5.672722 35.462 C 5.673722 35.462 5.673722 35.462 5.674722 35.462 C 5.738722 35.462 5.790722 35.41 5.790722 35.345 C 5.790722 35.319 5.781722 35.294 5.767722 35.275 C 5.673722 35.089 4.979722 33.765 4.026722 33.515 C 3.915722 33.487 3.796722 33.47 3.671722 33.464 C 3.745722 33.559 3.817722 33.647 3.890722 33.726 C 3.915722 33.731 3.943722 33.734 3.968722 33.741 C 4.547722 33.892 5.041722 34.53 5.322722 34.968 C 5.105722 34.833 4.892722 34.718 4.684722 34.618 C 4.713722 34.709 4.731722 34.805 4.735722 34.904 C 5.017722 35.05 5.308722 35.224 5.604722 35.44 C 5.623722 35.455 5.647722 35.462 5.672722 35.462 Z" fill="white"/>
        </g>
        <g id="Graphic_687">
          <path d="M 2.3187218 34.033 C 2.3977218 33.996 2.4857218 33.957 2.578722 33.919 C 2.5317218 33.856 2.4857218 33.79 2.4387218 33.724 C 2.0507218 33.884 1.7757218 34.062 1.7557218 34.075 C 1.7097218 34.105 1.6917218 34.163 1.7107218 34.215 C 1.7307218 34.265 1.7827218 34.297 1.8377218 34.288 C 1.8397218 34.288 1.9837218 34.266 2.2317218 34.266 C 2.4047218 34.266 2.625722 34.277 2.879722 34.312 C 2.812722 34.23 2.744722 34.144 2.677722 34.055 C 2.545722 34.042 2.4247218 34.035 2.3187218 34.033 Z" fill="white"/>
        </g>
        <g id="Graphic_686">
          <path d="M 9.456722 30.624 C 9.123722 30.554 8.811722 30.519 8.525722 30.519 C 7.754722 30.519 7.145722 30.775 6.714722 31.279 C 5.920722 32.207 5.896722 33.764 5.945722 34.566 C 6.734722 32.507 7.936722 31.157 9.456722 30.624 Z" fill="white"/>
        </g>
        <g id="Graphic_685">
          <path d="M 5.872722 35.211 C 5.875722 35.211 5.877722 35.211 5.881722 35.211 C 5.932722 35.211 5.976722 35.18 5.992722 35.132 C 6.561722 33.423 7.707722 31.272 9.930722 30.727 C 9.982722 30.714 10.018722 30.669 10.019722 30.617 C 10.020722 30.564 9.984722 30.516 9.934722 30.503 C 8.407722 30.075 7.256722 30.29 6.539722 31.128 C 5.372722 32.494 5.750722 35.007 5.768722 35.113 C 5.774722 35.165 5.818722 35.206 5.872722 35.211 Z M 6.715722 31.279 C 7.146722 30.775 7.755722 30.519 8.526722 30.519 C 8.812722 30.519 9.124722 30.554 9.457722 30.624 C 7.937722 31.157 6.735722 32.506 5.947722 34.565 C 5.897722 33.764 5.920722 32.207 6.715722 31.279 Z" fill="white"/>
        </g>
        <g id="Graphic_684">
          <path d="M 6.762722 34.634 C 7.327722 34.339 8.304722 33.916 9.259722 33.916 C 9.336722 33.916 9.411722 33.918 9.485722 33.923 C 9.184722 33.666 8.866722 33.536 8.537722 33.536 C 7.798722 33.537 7.137722 34.181 6.762722 34.634 Z" fill="white"/>
        </g>
        <g id="Graphic_683">
          <path d="M 8.536722 33.304 C 7.273722 33.304 6.284722 34.883 6.243722 34.949 C 6.214722 34.996 6.222722 35.056 6.261722 35.095 C 6.283722 35.117 6.313722 35.128 6.343722 35.128 C 6.364722 35.128 6.387722 35.122 6.406722 35.108 C 6.422722 35.099 7.893722 34.15 9.260722 34.15 C 9.448722 34.15 9.628722 34.168 9.795722 34.204 C 9.803722 34.206 9.813722 34.208 9.821722 34.206 C 9.886722 34.211 9.939722 34.154 9.939722 34.089 C 9.939722 34.053 9.922722 34.019 9.895722 33.998 C 9.477722 33.537 9.021722 33.304 8.536722 33.304 Z M 9.258722 33.917 C 8.303722 33.917 7.327722 34.339 6.761722 34.635 C 7.136722 34.182 7.797722 33.537 8.535722 33.537 C 8.865722 33.537 9.182722 33.667 9.483722 33.924 C 9.411722 33.919 9.335722 33.917 9.258722 33.917 Z" fill="white"/>
        </g>
        <g id="Graphic_682">
          <path d="M 9.905722 34.603 C 8.658722 34.603 7.328722 35.159 6.695722 35.463 C 6.934722 35.475 7.159722 35.487 7.373722 35.498 C 9.910722 35.625 10.740722 35.665 12.683722 37.286 C 12.438722 35.505 11.505722 34.603 9.905722 34.603 Z" fill="white"/>
        </g>
        <g id="Graphic_681">
          <path d="M 9.905722 34.37 C 8.136722 34.37 6.278722 35.409 6.200722 35.453 C 6.155722 35.478 6.132722 35.53 6.144722 35.58 C 6.155722 35.63 6.199722 35.666 6.250722 35.67 C 6.655722 35.694 7.023722 35.712 7.360722 35.729 C 9.999722 35.861 10.707722 35.897 12.756722 37.652 C 12.777722 37.671 12.804722 37.679 12.831722 37.679 C 12.831722 37.679 12.832722 37.679 12.833722 37.679 C 12.897722 37.679 12.949722 37.627 12.949722 37.564 C 12.949722 37.551 12.948722 37.541 12.945722 37.53 C 12.808722 36.083 12.166722 34.37 9.905722 34.37 Z M 7.373722 35.498 C 7.159722 35.487 6.934722 35.475 6.695722 35.463 C 7.328722 35.159 8.658722 34.603 9.905722 34.603 C 11.504722 34.603 12.438722 35.505 12.683722 37.287 C 10.740722 35.666 9.910722 35.625 7.373722 35.498 Z" fill="white"/>
        </g>
        <g id="Group_679">
          <g id="Graphic_680">
            <path d="M 39.67472 24.81 C 40.31272 23.175 40.76872 22.523 40.94772 22.308 L 40.76572 22.126 C 40.42172 22.614 39.04772 24.697 38.65072 27.327 C 38.77872 27.46 38.94472 27.648 39.11572 27.681 C 39.15372 27.688 39.18972 27.674 39.22372 27.647 C 39.20272 26.828 39.28772 25.802 39.67472 24.81 Z" fill="white"/>
          </g>
        </g>
        <g id="Group_677">
          <g id="Graphic_678">
            <path d="M 38.56272 29.345 C 39.00272 29.235 39.25872 29.177 39.38872 29.147 C 39.35572 28.986 39.29872 28.671 39.25972 28.258 C 39.13172 28.286 38.98672 28.269 38.82472 28.19 C 38.73372 28.146 38.64872 28.092 38.56872 28.035 C 38.53672 28.461 38.53072 28.899 38.56272 29.345 Z" fill="white"/>
          </g>
        </g>
        <g id="Group_675">
          <g id="Graphic_676">
            <path d="M 38.65072 27.327 C 39.04772 24.697 40.42172 22.614 40.76572 22.126 L 40.94772 22.308 C 40.76872 22.523 40.31272 23.175 39.67472 24.81 C 39.28772 25.802 39.20272 26.829 39.22372 27.647 C 39.31972 27.571 39.40072 27.386 39.46072 27.212 C 39.47672 26.501 39.58372 25.68 39.89072 24.894 C 40.67972 22.873 41.18172 22.394 41.18572 22.39 C 41.20972 22.369 41.22372 22.338 41.22472 22.306 C 41.22572 22.274 41.21372 22.243 41.19072 22.221 L 40.83372 21.865 C 40.81072 21.842 40.77772 21.829 40.74372 21.83 C 40.71072 21.832 40.67972 21.85 40.65872 21.876 C 40.63772 21.904 38.94772 24.15 38.44772 27.13 C 38.49872 27.178 38.54872 27.226 38.59972 27.276 C 38.61472 27.291 38.63272 27.308 38.65072 27.327 Z" fill="white"/>
          </g>
        </g>
        <g id="Group_673">
          <g id="Graphic_674">
            <path d="M 39.38872 29.147 C 39.25872 29.177 39.00272 29.235 38.56272 29.345 C 38.53072 28.899 38.53672 28.461 38.56872 28.034 C 38.49372 27.979 38.42172 27.92 38.35172 27.857 C 38.30272 28.389 38.29172 28.94 38.34172 29.501 C 38.34472 29.535 38.36272 29.566 38.38972 29.585 C 38.40972 29.6 38.43372 29.606 38.45672 29.606 C 38.46672 29.606 38.47672 29.605 38.48472 29.603 C 39.28672 29.403 39.54772 29.351 39.54972 29.35 C 39.58072 29.343 39.60872 29.325 39.62472 29.299 C 39.64172 29.271 39.64672 29.239 39.63972 29.208 C 39.63772 29.199 39.53872 28.784 39.48772 28.155 C 39.41772 28.204 39.34172 28.239 39.25872 28.257 C 39.29872 28.671 39.35572 28.986 39.38872 29.147 Z" fill="white"/>
          </g>
        </g>
        <g id="Group_671">
          <g id="Graphic_672">
            <circle cx="41.78672" cy="22.73" r="0.39400062957335" fill="white"/>
          </g>
        </g>
        <g id="Group_669">
          <g id="Graphic_670">
            <path d="M 42.41272 22.73 C 42.41272 22.385 42.13172 22.104 41.78772 22.104 C 41.44172 22.104 41.16072 22.385 41.16072 22.73 C 41.16072 23.075 41.44172 23.356 41.78772 23.356 C 42.13172 23.357 42.41272 23.075 42.41272 22.73 Z M 41.39272 22.73 C 41.39272 22.514 41.56972 22.336 41.78672 22.336 C 42.00272 22.336 42.17972 22.514 42.17972 22.73 C 42.17972 22.947 42.00272 23.124 41.78672 23.124 C 41.56972 23.124 41.39272 22.947 41.39272 22.73 Z" fill="white"/>
          </g>
        </g>
        <g id="Group_667">
          <g id="Graphic_668">
            <path d="M 43.04572 21.522 C 42.64772 21.522 42.26072 21.59 41.95772 21.665 C 43.77172 21.854 44.41172 22.717 45.17272 24.539 C 45.26272 23.451 45.08772 22.647 44.65172 22.146 C 44.29072 21.732 43.75072 21.522 43.04572 21.522 Z" fill="white"/>
          </g>
        </g>
        <g id="Group_665">
          <g id="Graphic_666">
            <path d="M 43.04572 21.289 C 42.12972 21.289 41.30272 21.621 41.26872 21.635 C 41.21772 21.656 41.18872 21.71 41.19872 21.764 C 41.20872 21.818 41.25572 21.858 41.31072 21.86 C 43.65572 21.909 44.21972 22.773 45.12972 25.048 C 45.14872 25.093 45.19172 25.121 45.23772 25.121 C 45.24272 25.121 45.24672 25.121 45.25172 25.12 C 45.30472 25.114 45.34672 25.073 45.35372 25.021 C 45.54572 23.632 45.36972 22.614 44.82772 21.992 C 44.42072 21.526 43.82072 21.289 43.04572 21.289 Z M 45.17272 24.538 C 44.41172 22.716 43.77172 21.854 41.95772 21.664 C 42.26072 21.59 42.64772 21.521 43.04572 21.521 C 43.75072 21.521 44.29172 21.73 44.65072 22.144 C 45.08772 22.647 45.26172 23.45 45.17272 24.538 Z" fill="white"/>
          </g>
        </g>
        <g id="Group_663">
          <g id="Graphic_664">
            <path d="M 43.05772 19.839 C 42.93672 19.839 42.82172 19.853 42.71772 19.88 C 42.20872 20.013 41.77072 20.561 41.51272 20.958 C 42.59972 20.291 43.59272 20.145 44.17672 20.127 C 43.87672 19.989 43.45872 19.839 43.05772 19.839 Z" fill="white"/>
          </g>
        </g>
        <g id="Group_661">
          <g id="Graphic_662">
            <path d="M 41.08472 21.424 C 41.10672 21.442 41.13272 21.451 41.15972 21.451 C 41.18372 21.451 41.20772 21.444 41.22772 21.429 C 42.50472 20.498 43.70072 20.359 44.29972 20.359 C 44.52572 20.359 44.65672 20.379 44.65772 20.379 C 44.66472 20.38 44.66872 20.381 44.67672 20.381 C 44.74672 20.38 44.79572 20.329 44.79572 20.264 C 44.79572 20.217 44.76672 20.176 44.72672 20.158 C 44.61072 20.083 43.82872 19.605 43.05872 19.605 C 42.91772 19.605 42.78372 19.622 42.66072 19.654 C 41.74072 19.894 41.08372 21.227 41.05672 21.283 C 41.03072 21.332 41.04372 21.39 41.08472 21.424 Z M 42.71772 19.88 C 42.82172 19.853 42.93672 19.839 43.05772 19.839 C 43.45872 19.839 43.87672 19.989 44.17772 20.128 C 43.59372 20.145 42.60072 20.291 41.51372 20.959 C 41.77072 20.561 42.20872 20.013 42.71772 19.88 Z" fill="white"/>
          </g>
        </g>
        <g id="Group_659">
          <g id="Graphic_660">
            <path d="M 40.90172 20.574 C 40.94272 19.831 40.90672 18.454 40.19872 17.628 C 39.66772 17.007 38.84272 16.804 37.74172 17.027 C 39.10572 17.519 40.18672 18.733 40.90172 20.574 Z" fill="white"/>
          </g>
        </g>
        <g id="Group_657">
          <g id="Graphic_658">
            <path d="M 37.26972 17.128 C 39.29472 17.624 40.33772 19.584 40.85772 21.142 C 40.87372 21.19 40.91872 21.222 40.96672 21.222 C 40.97072 21.222 40.97372 21.222 40.97672 21.222 C 41.03072 21.217 41.07372 21.178 41.08272 21.123 C 41.09672 21.027 41.44372 18.727 40.37572 17.477 C 39.71872 16.708 38.66472 16.512 37.26672 16.903 C 37.21472 16.918 37.18072 16.965 37.18172 17.017 C 37.18272 17.07 37.21772 17.115 37.26972 17.128 Z M 40.19872 17.628 C 40.90672 18.454 40.94172 19.831 40.90172 20.574 C 40.18672 18.732 39.10672 17.518 37.74172 17.027 C 38.84172 16.804 39.66772 17.007 40.19872 17.628 Z" fill="white"/>
          </g>
        </g>
        <g id="Group_655">
          <g id="Graphic_656">
            <path d="M 38.54372 19.694 C 38.25472 19.694 37.97572 19.805 37.70872 20.026 C 37.76672 20.022 37.82572 20.021 37.88472 20.021 C 38.73372 20.021 39.60072 20.386 40.12272 20.655 C 39.77772 20.244 39.19272 19.694 38.54372 19.694 Z" fill="white"/>
          </g>
        </g>
        <g id="Group_653">
          <g id="Graphic_654">
            <path d="M 38.54372 19.461 C 38.09472 19.461 37.67172 19.679 37.28772 20.111 C 37.25472 20.148 37.24872 20.204 37.27472 20.247 C 37.29872 20.29 37.35072 20.312 37.39972 20.302 C 37.55072 20.27 37.71372 20.253 37.88472 20.253 C 39.12772 20.253 40.47072 21.119 40.48372 21.128 C 40.50372 21.141 40.52572 21.147 40.54672 21.147 L 40.54872 21.147 C 40.61272 21.147 40.66572 21.094 40.66572 21.03 C 40.66572 21 40.65372 20.972 40.63472 20.951 C 40.52272 20.772 39.64772 19.461 38.54372 19.461 Z M 37.88472 20.02 C 37.82472 20.02 37.76572 20.021 37.70872 20.025 C 37.97572 19.805 38.25472 19.693 38.54372 19.693 C 39.19272 19.693 39.77772 20.243 40.12272 20.653 C 39.60072 20.385 38.73372 20.02 37.88472 20.02 Z" fill="white"/>
          </g>
        </g>
        <g id="Group_651">
          <g id="Graphic_652">
            <path d="M 40.18572 21.434 C 39.59372 21.154 38.40672 20.667 37.29472 20.667 C 35.84772 20.667 35.00072 21.479 34.77172 23.083 C 36.53472 21.617 37.29572 21.579 39.60572 21.464 C 39.78772 21.455 39.98172 21.445 40.18572 21.434 Z" fill="white"/>
          </g>
        </g>
        <g id="Group_649">
          <g id="Graphic_650">
            <path d="M 34.56872 23.464 C 34.58472 23.473 34.60372 23.478 34.62172 23.478 C 34.64872 23.478 34.67672 23.468 34.69772 23.45 C 36.56472 21.849 37.21172 21.817 39.61672 21.697 C 39.92572 21.681 40.26072 21.665 40.63072 21.643 C 40.68272 21.64 40.72572 21.603 40.73672 21.553 C 40.74872 21.503 40.72572 21.45 40.68072 21.426 C 40.60972 21.385 38.91072 20.435 37.29472 20.435 C 35.21172 20.435 34.62872 22.021 34.50572 23.351 C 34.50172 23.398 34.52572 23.443 34.56872 23.464 Z M 37.29472 20.667 C 38.40672 20.667 39.59272 21.154 40.18572 21.434 C 39.98172 21.445 39.78772 21.455 39.60572 21.464 C 37.29572 21.579 36.53472 21.617 34.77172 23.083 C 35.00072 21.479 35.84772 20.667 37.29472 20.667 Z" fill="white"/>
          </g>
        </g>
        <g id="Group_647">
          <g id="Graphic_648">
            <path d="M 75.10972 59.582 C 75.37472 59.518 75.53972 59.478 75.63572 59.457 C 75.55472 59.049 75.33872 57.656 75.84972 56.349 C 76.28772 55.225 76.60972 54.743 76.75172 54.562 L 76.66872 54.48 C 76.32372 54.978 74.95172 57.124 75.10972 59.582 Z" fill="white"/>
          </g>
        </g>
        <g id="Group_645">
          <g id="Graphic_646">
            <path d="M 76.99472 54.475 L 76.73772 54.218 C 76.71372 54.194 76.68072 54.182 76.64772 54.185 C 76.61372 54.187 76.58372 54.203 76.56172 54.23 C 76.54272 54.255 74.63072 56.794 74.88872 59.739 C 74.89172 59.774 74.90972 59.804 74.93672 59.824 C 74.95672 59.839 74.98072 59.846 75.00372 59.846 C 75.01372 59.846 75.02272 59.845 75.03272 59.842 C 75.60772 59.698 75.79572 59.659 75.79772 59.659 C 75.82772 59.653 75.85572 59.635 75.87272 59.607 C 75.88972 59.581 75.89472 59.548 75.88772 59.517 C 75.88372 59.501 75.50072 57.883 76.06672 56.432 C 76.52272 55.262 76.84472 54.814 76.95172 54.686 C 76.97072 54.639 76.99772 54.597 77.02772 54.559 C 77.02872 54.528 77.01672 54.497 76.99472 54.475 Z M 75.84972 56.349 C 75.33872 57.657 75.55472 59.049 75.63572 59.457 C 75.53872 59.478 75.37372 59.518 75.10972 59.582 C 74.95172 57.124 76.32372 54.978 76.66972 54.479 L 76.75272 54.561 C 76.60972 54.742 76.28872 55.225 75.84972 56.349 Z" fill="white"/>
          </g>
        </g>
        <g id="Group_643">
          <g id="Graphic_644">
            <circle cx="77.40072" cy="54.864" r="0.25000039947547" fill="white"/>
          </g>
        </g>
        <g id="Group_641">
          <g id="Graphic_642">
            <path d="M 77.40072 54.381 C 77.25072 54.381 77.11772 54.451 77.02772 54.56 C 76.99772 54.598 76.96972 54.64 76.95172 54.687 C 76.92972 54.742 76.91772 54.801 76.91772 54.865 C 76.91772 55.132 77.13372 55.347 77.40072 55.347 C 77.66672 55.347 77.88272 55.131 77.88272 54.865 C 77.88272 54.599 77.66672 54.381 77.40072 54.381 Z M 77.40072 55.114 C 77.26172 55.114 77.14972 55.002 77.14972 54.864 C 77.14972 54.725 77.26172 54.613 77.40072 54.613 C 77.53872 54.613 77.65072 54.725 77.65072 54.864 C 77.65072 55.002 77.53872 55.114 77.40072 55.114 Z" fill="white"/>
          </g>
        </g>
        <g id="Group_639">
          <g id="Graphic_640">
            <path d="M 78.30572 54.027 C 78.09572 54.027 77.88972 54.054 77.70972 54.09 C 78.84872 54.266 79.31572 54.875 79.81272 56.028 C 79.85272 55.323 79.72672 54.799 79.43672 54.465 C 79.18372 54.174 78.80372 54.027 78.30572 54.027 Z" fill="white"/>
          </g>
        </g>
        <g id="Group_637">
          <g id="Graphic_638">
            <path d="M 78.30572 53.795 C 77.63972 53.795 77.03972 54.035 77.01472 54.045 C 76.96272 54.066 76.93372 54.12 76.94372 54.175 C 76.95472 54.229 77.00172 54.269 77.05572 54.27 C 78.72372 54.306 79.12572 54.921 79.77572 56.544 C 79.79272 56.589 79.83672 56.617 79.88272 56.617 C 79.88772 56.617 79.89172 56.617 79.89672 56.615 C 79.94972 56.609 79.99172 56.568 79.99872 56.517 C 80.13872 55.507 80.00872 54.766 79.61272 54.311 C 79.31372 53.968 78.87472 53.795 78.30572 53.795 Z M 79.81272 56.028 C 79.31672 54.875 78.84872 54.265 77.70972 54.09 C 77.88972 54.055 78.09572 54.027 78.30572 54.027 C 78.80372 54.027 79.18372 54.174 79.43672 54.465 C 79.72672 54.798 79.85272 55.322 79.81272 56.028 Z" fill="white"/>
          </g>
        </g>
        <g id="Group_635">
          <g id="Graphic_636">
            <path d="M 78.31472 52.816 C 78.22972 52.816 78.15072 52.826 78.07872 52.845 C 77.76972 52.925 77.49772 53.226 77.31072 53.487 C 77.97072 53.112 78.57272 52.996 78.97972 52.966 C 78.78472 52.887 78.54572 52.816 78.31472 52.816 Z" fill="white"/>
          </g>
        </g>
        <g id="Group_633">
          <g id="Graphic_634">
            <path d="M 76.84572 53.804 C 76.84472 53.806 76.84372 53.809 76.84372 53.809 C 76.81972 53.858 76.83172 53.915 76.87372 53.95 C 76.89472 53.968 76.92072 53.977 76.94772 53.977 C 76.97172 53.977 76.99572 53.969 77.01572 53.955 C 77.92772 53.29 78.78072 53.19 79.20772 53.19 C 79.36572 53.19 79.45972 53.205 79.45972 53.205 C 79.46672 53.206 79.47272 53.206 79.47872 53.206 C 79.47872 53.207 79.48072 53.206 79.48072 53.206 C 79.54572 53.206 79.59772 53.154 79.59772 53.091 C 79.59772 53.043 79.56972 53.002 79.52872 52.984 C 79.43072 52.923 78.86972 52.586 78.31372 52.586 C 78.20972 52.586 78.10972 52.597 78.01872 52.622 C 77.50572 52.755 77.10772 53.345 76.93472 53.641 C 76.92972 53.681 76.92572 53.707 76.92472 53.715 C 76.91972 53.757 76.88672 53.791 76.84572 53.804 Z M 78.07872 52.845 C 78.15072 52.825 78.22972 52.816 78.31472 52.816 C 78.54472 52.816 78.78472 52.887 78.97972 52.966 C 78.57272 52.995 77.97072 53.112 77.31072 53.487 C 77.49772 53.226 77.76972 52.925 78.07872 52.845 Z" fill="white"/>
          </g>
        </g>
        <g id="Group_631">
          <g id="Graphic_632">
            <path d="M 76.73672 53.158 C 76.75172 52.609 76.68972 51.747 76.23272 51.214 C 75.87672 50.798 75.33272 50.649 74.60872 50.772 C 75.51272 51.138 76.23872 51.952 76.73672 53.158 Z" fill="white"/>
          </g>
        </g>
        <g id="Group_629">
          <g id="Graphic_630">
            <path d="M 74.14272 50.864 C 75.58472 51.218 76.33072 52.618 76.70072 53.731 C 76.71772 53.78 76.76172 53.811 76.81072 53.811 C 76.81472 53.811 76.81772 53.811 76.81972 53.81 C 76.83072 53.81 76.83772 53.806 76.84572 53.803 C 76.88672 53.79 76.91872 53.756 76.92572 53.712 C 76.92672 53.704 76.93072 53.678 76.93572 53.638 C 76.97972 53.295 77.10672 51.876 76.41072 51.062 C 75.92872 50.499 75.15872 50.353 74.13872 50.638 C 74.08872 50.653 74.05372 50.7 74.05472 50.752 C 74.05372 50.807 74.09172 50.851 74.14272 50.864 Z M 76.23272 51.214 C 76.68972 51.747 76.75172 52.61 76.73672 53.158 C 76.23872 51.952 75.51272 51.137 74.60872 50.771 C 75.33272 50.649 75.87672 50.798 76.23272 51.214 Z" fill="white"/>
          </g>
        </g>
        <g id="Group_627">
          <g id="Graphic_628">
            <path d="M 75.06572 52.712 C 74.89572 52.712 74.72772 52.769 74.56672 52.881 C 74.57572 52.881 74.58372 52.881 74.59172 52.881 C 75.13272 52.881 75.68572 53.085 76.06872 53.267 C 75.81972 53.001 75.45872 52.712 75.06572 52.712 Z" fill="white"/>
          </g>
        </g>
        <g id="Group_625">
          <g id="Graphic_626">
            <path d="M 75.06572 52.479 C 74.73272 52.479 74.42072 52.64 74.13772 52.958 C 74.10472 52.996 74.09872 53.051 74.12372 53.095 C 74.14872 53.138 74.19972 53.159 74.24872 53.149 C 74.35472 53.128 74.47172 53.116 74.59172 53.116 C 75.47672 53.116 76.43472 53.732 76.44472 53.739 C 76.46472 53.752 76.48672 53.758 76.50772 53.758 L 76.50972 53.758 C 76.57372 53.758 76.62672 53.706 76.62672 53.642 C 76.62672 53.612 76.61472 53.583 76.59572 53.563 C 76.50072 53.413 75.86872 52.479 75.06572 52.479 Z M 74.59172 52.881 C 74.58272 52.881 74.57472 52.881 74.56672 52.881 C 74.72772 52.769 74.89572 52.712 75.06572 52.712 C 75.45872 52.712 75.81972 53.001 76.06872 53.267 C 75.68572 53.085 75.13372 52.881 74.59172 52.881 Z" fill="white"/>
          </g>
        </g>
        <g id="Group_623">
          <g id="Graphic_624">
            <path d="M 74.16772 53.411 C 73.17172 53.411 72.57772 53.958 72.39672 55.037 C 73.62672 54.03 74.18672 54.002 75.82872 53.92 C 75.92072 53.915 76.01572 53.91 76.11472 53.905 C 75.66372 53.702 74.89272 53.411 74.16772 53.411 Z" fill="white"/>
          </g>
        </g>
        <g id="Group_621">
          <g id="Graphic_622">
            <path d="M 76.56972 54.113 C 76.62172 54.11 76.66572 54.073 76.67672 54.023 C 76.68872 53.972 76.66472 53.92 76.62072 53.895 C 76.56872 53.867 75.33872 53.178 74.16672 53.178 C 73.32572 53.178 72.28972 53.547 72.12772 55.307 C 72.12372 55.354 72.14872 55.4 72.19072 55.421 C 72.20772 55.429 72.22572 55.434 72.24472 55.434 C 72.27172 55.434 72.29872 55.424 72.32072 55.406 C 73.65472 54.261 74.11772 54.238 75.84072 54.152 C 76.06172 54.141 76.30372 54.129 76.56972 54.113 Z M 72.39672 55.037 C 72.57772 53.958 73.17072 53.411 74.16772 53.411 C 74.89372 53.411 75.66372 53.702 76.11472 53.905 C 76.01472 53.91 75.92072 53.915 75.82872 53.92 C 74.18672 54.002 73.62772 54.03 72.39672 55.037 Z" fill="white"/>
          </g>
        </g>
        <g id="Group_619">
          <g id="Graphic_620">
            <path d="M 83.77972 70.404 C 84.04372 70.338 84.20972 70.3 84.30672 70.277 C 84.22472 69.87 84.00872 68.477 84.51972 67.169 C 84.95772 66.046 85.27972 65.563 85.42172 65.383 L 85.33872 65.3 C 84.99372 65.797 83.62172 67.944 83.77972 70.404 Z" fill="white"/>
          </g>
        </g>
        <g id="Group_617">
          <g id="Graphic_618">
            <path d="M 85.31772 65.004 C 85.28472 65.006 85.25372 65.023 85.23272 65.049 C 85.21272 65.075 83.29972 67.614 83.55872 70.56 C 83.56072 70.593 83.57972 70.624 83.60672 70.644 C 83.62672 70.659 83.64972 70.665 83.67372 70.665 C 83.68372 70.665 83.69372 70.664 83.70172 70.661 C 84.27672 70.518 84.46572 70.479 84.46672 70.479 C 84.49772 70.473 84.52572 70.454 84.54172 70.427 C 84.55972 70.401 84.56472 70.367 84.55772 70.337 C 84.55372 70.32 84.16872 68.705 84.73672 67.252 C 85.19372 66.082 85.51472 65.634 85.62272 65.505 C 85.62672 65.492 85.63372 65.482 85.63972 65.469 C 85.62972 65.443 85.61972 65.415 85.61072 65.391 C 85.58272 65.313 85.55372 65.234 85.52472 65.153 L 85.40872 65.038 C 85.38372 65.013 85.35072 65.001 85.31772 65.004 Z M 84.51972 67.168 C 84.00872 68.477 84.22472 69.869 84.30672 70.276 C 84.20872 70.298 84.04272 70.337 83.77972 70.403 C 83.62172 67.943 84.99372 65.797 85.33972 65.299 L 85.42272 65.382 C 85.27972 65.562 84.95772 66.045 84.51972 67.168 Z" fill="white"/>
          </g>
        </g>
        <g id="Group_615">
          <g id="Graphic_616">
            <path d="M 85.58672 65.684 C 85.58672 65.877 85.70172 66.044 85.86672 66.121 C 85.79372 65.894 85.71572 65.678 85.63872 65.471 C 85.63272 65.484 85.62572 65.494 85.62172 65.507 C 85.59972 65.562 85.58672 65.621 85.58672 65.684 Z" fill="white"/>
          </g>
        </g>
        <g id="Group_613">
          <g id="Graphic_614">
            <path d="M 88.48372 66.847 C 88.52272 66.142 88.39672 65.618 88.10672 65.284 C 87.85372 64.994 87.47272 64.846 86.97472 64.846 C 86.86772 64.846 86.76072 64.854 86.65872 64.865 C 86.67172 64.901 86.68372 64.937 86.69872 64.975 C 87.60972 65.213 88.03672 65.809 88.48372 66.847 Z" fill="white"/>
          </g>
        </g>
        <g id="Group_611">
          <g id="Graphic_612">
            <path d="M 88.28272 65.131 C 87.98372 64.788 87.54372 64.614 86.97472 64.614 C 86.83872 64.614 86.70472 64.625 86.57872 64.641 C 86.60172 64.709 86.62972 64.786 86.65872 64.865 C 86.76172 64.854 86.86772 64.846 86.97472 64.846 C 87.47272 64.846 87.85372 64.993 88.10672 65.284 C 88.39672 65.617 88.52272 66.141 88.48372 66.847 C 88.03672 65.809 87.60972 65.213 86.69872 64.976 C 86.69972 64.981 86.70072 64.985 86.70372 64.989 C 86.73272 65.071 86.76572 65.156 86.79672 65.244 C 87.61872 65.515 87.96472 66.164 88.44472 67.365 C 88.46272 67.409 88.50672 67.438 88.55272 67.438 C 88.55772 67.438 88.56172 67.438 88.56672 67.437 C 88.61872 67.43 88.66072 67.389 88.66872 67.336 C 88.80772 66.329 88.67772 65.586 88.28272 65.131 Z" fill="white"/>
          </g>
        </g>
        <g id="Group_609">
          <g id="Graphic_610">
            <path d="M 86.98472 63.636 C 86.90072 63.636 86.82072 63.646 86.74872 63.664 C 86.62772 63.696 86.51172 63.763 86.40372 63.847 C 86.39172 63.907 86.39572 63.984 86.41772 64.092 C 86.90172 63.885 87.33472 63.809 87.64972 63.786 C 87.45472 63.706 87.21572 63.636 86.98472 63.636 Z" fill="white"/>
          </g>
        </g>
        <g id="Group_607">
          <g id="Graphic_608">
            <path d="M 86.40372 63.847 C 86.51072 63.763 86.62772 63.697 86.74872 63.664 C 86.82072 63.645 86.90072 63.636 86.98472 63.636 C 87.21472 63.636 87.45472 63.706 87.64972 63.786 C 87.33472 63.808 86.90172 63.885 86.41772 64.092 C 86.43072 64.155 86.44872 64.232 86.47572 64.32 C 87.06872 64.06 87.57972 64.01 87.87972 64.01 C 88.03772 64.01 88.13072 64.025 88.13272 64.025 C 88.13772 64.026 88.14472 64.026 88.15072 64.026 C 88.14972 64.026 88.15272 64.026 88.15372 64.026 C 88.21672 64.026 88.26872 63.974 88.26872 63.91 C 88.26872 63.863 88.24072 63.822 88.20072 63.805 C 88.10272 63.743 87.54172 63.405 86.98572 63.405 C 86.93672 63.405 86.88872 63.408 86.84372 63.413 C 86.74372 63.514 86.63772 63.603 86.52472 63.681 C 86.46172 63.72 86.41972 63.768 86.40372 63.847 Z" fill="white"/>
          </g>
        </g>
        <g id="Group_605">
          <g id="Graphic_606">
            <path d="M 83.27872 61.591 C 84.09472 61.923 84.76472 62.619 85.25372 63.639 C 85.27472 63.507 85.31272 63.38 85.37372 63.258 C 85.31872 62.825 85.18672 62.366 84.90272 62.033 C 84.54772 61.618 84.00272 61.468 83.27872 61.591 Z" fill="white"/>
          </g>
        </g>
        <g id="Group_603">
          <g id="Graphic_604">
            <path d="M 82.80872 61.458 C 82.75672 61.473 82.72272 61.52 82.72272 61.573 C 82.72472 61.626 82.76072 61.671 82.81172 61.684 C 84.13772 62.008 84.87372 63.218 85.27172 64.276 C 85.23372 64.056 85.22172 63.842 85.25272 63.638 C 84.76472 62.618 84.09472 61.922 83.27772 61.59 C 84.00172 61.467 84.54672 61.617 84.90172 62.032 C 85.18572 62.365 85.31772 62.824 85.37272 63.257 C 85.42172 63.159 85.48372 63.065 85.56372 62.975 C 85.48772 62.585 85.34272 62.19 85.07872 61.882 C 84.59772 61.32 83.82772 61.174 82.80872 61.458 Z" fill="white"/>
          </g>
        </g>
        <g id="Group_601">
          <g id="Graphic_602">
            <path d="M 84.73872 64.087 C 84.48972 63.821 84.12872 63.531 83.73572 63.531 C 83.56472 63.531 83.39772 63.588 83.23672 63.7 C 83.24472 63.7 83.25372 63.7 83.26172 63.7 C 83.80372 63.7 84.35572 63.905 84.73872 64.087 Z" fill="white"/>
          </g>
        </g>
        <g id="Group_599">
          <g id="Graphic_600">
            <path d="M 82.91972 63.968 C 83.02572 63.946 83.14172 63.934 83.26272 63.934 C 84.14772 63.934 85.10672 64.552 85.11672 64.558 C 85.13572 64.571 85.15772 64.576 85.17972 64.576 C 85.18072 64.577 85.18172 64.576 85.18272 64.576 C 85.24572 64.576 85.29872 64.525 85.29872 64.461 C 85.29872 64.43 85.28672 64.402 85.26772 64.382 C 85.17272 64.234 84.53972 63.3 83.73772 63.3 C 83.40572 63.3 83.09272 63.46 82.80972 63.778 C 82.77672 63.816 82.77072 63.871 82.79572 63.915 C 82.82072 63.959 82.87072 63.979 82.91972 63.968 Z M 83.73572 63.531 C 84.12872 63.531 84.48972 63.821 84.73872 64.087 C 84.35572 63.905 83.80372 63.7 83.26172 63.7 C 83.25272 63.7 83.24372 63.7 83.23672 63.7 C 83.39772 63.588 83.56472 63.531 83.73572 63.531 Z" fill="white"/>
          </g>
        </g>
        <g id="Group_597">
          <g id="Graphic_598">
            <path d="M 82.83772 64.233 C 81.84172 64.233 81.24772 64.779 81.06772 65.858 C 82.29672 64.851 82.85772 64.823 84.49872 64.741 C 84.59072 64.736 84.68572 64.731 84.78372 64.726 C 84.33372 64.522 83.56172 64.233 82.83772 64.233 Z" fill="white"/>
          </g>
        </g>
        <g id="Group_595">
          <g id="Graphic_596">
            <path d="M 85.24072 64.934 C 85.29172 64.93 85.33472 64.894 85.34672 64.844 C 85.35772 64.794 85.33472 64.741 85.28972 64.716 C 85.23772 64.687 84.00872 63.999 82.83672 63.999 C 81.99672 63.999 80.95972 64.368 80.79672 66.127 C 80.79372 66.175 80.81772 66.219 80.86072 66.241 C 80.87672 66.25 80.89472 66.255 80.91372 66.255 C 80.93972 66.255 80.96772 66.246 80.98872 66.227 C 82.32372 65.082 82.78672 65.059 84.50972 64.973 C 84.73172 64.961 84.97272 64.949 85.24072 64.934 Z M 81.06772 65.858 C 81.24772 64.779 81.84072 64.233 82.83772 64.233 C 83.56272 64.233 84.33372 64.522 84.78372 64.726 C 84.68472 64.731 84.59072 64.736 84.49872 64.741 C 82.85772 64.822 82.29772 64.851 81.06772 65.858 Z" fill="white"/>
          </g>
        </g>
        <g id="Group_593">
          <g id="Graphic_594">
            <path d="M 86.69872 64.976 C 86.68372 64.938 86.67172 64.902 86.65872 64.866 C 86.62972 64.787 86.60172 64.711 86.57872 64.642 C 86.53572 64.518 86.50272 64.413 86.47472 64.32 C 86.44872 64.232 86.42972 64.156 86.41672 64.092 C 86.39572 63.984 86.39172 63.906 86.40272 63.847 C 86.41872 63.768 86.46072 63.72 86.52272 63.679 C 86.63572 63.602 86.74272 63.512 86.84172 63.411 C 87.33372 62.911 87.62272 62.136 87.60972 61.287 C 87.59472 60.241 87.12972 59.356 86.33372 58.858 C 85.12872 58.105 85.03472 55.837 85.03472 55.16 C 85.03472 54.001 83.64572 53.26 83.01472 52.982 C 82.59772 51.475 81.76272 48.138 81.88772 47.016 C 82.06372 45.432 81.78672 42.08 79.80872 41.833 C 79.44672 41.787 78.86972 41.24 78.51772 40.315 C 78.17272 39.41 78.20572 38.532 78.60372 38.079 C 78.68972 37.98 78.79172 37.867 78.90272 37.741 C 80.71572 35.708 82.61072 33.398 82.17372 31.696 C 82.06072 31.256 81.73072 30.662 80.80472 30.336 C 80.29072 30.154 79.78172 30.067 79.24772 30.067 C 78.12672 30.067 77.13072 30.454 76.07572 30.864 C 74.98172 31.29 73.85072 31.73 72.51672 31.73 C 72.32372 31.73 72.12672 31.721 71.93372 31.702 C 70.12872 31.53 69.33072 30.927 68.62772 30.393 C 68.06572 29.967 67.53572 29.564 66.69872 29.564 C 66.53472 29.564 66.36172 29.581 66.18472 29.613 C 65.65272 29.71 65.15772 29.759 64.71072 29.759 C 64.49972 29.759 64.32272 29.748 64.18072 29.733 C 64.40472 28.46 64.74672 25.435 63.42772 23.474 C 62.78072 22.513 61.83272 21.933 60.61072 21.752 C 59.61372 21.604 58.56372 21.533 57.40172 21.533 C 56.67172 21.533 55.98372 21.56 55.37772 21.585 C 54.86972 21.606 54.39272 21.624 53.97072 21.624 C 52.74572 21.624 52.18272 21.456 51.96572 21.02 C 51.75472 20.598 51.54872 20.278 51.38272 20.021 C 51.31172 19.912 51.22972 19.784 51.17772 19.69 C 51.35672 19.582 51.74472 19.42 52.33972 19.209 C 53.43472 18.818 54.00672 17.843 53.91072 16.533 C 53.78672 14.834 52.70672 13.184 51.90872 13.025 C 51.37672 12.919 49.04572 11.575 47.55972 10.656 C 47.34672 10.524 47.07372 10.543 46.88072 10.703 C 46.15572 11.306 43.97072 12.871 42.56172 12.871 C 42.46572 12.871 42.37472 12.863 42.29172 12.848 C 41.90072 12.777 41.47772 12.741 41.03172 12.741 C 40.00972 12.741 39.07072 12.929 38.51272 13.069 C 37.92372 11.554 37.50272 9.796 37.78072 9.378 C 38.33672 8.544 38.51872 7.36 38.22272 6.499 C 38.02972 5.935 37.64172 5.529 37.13172 5.36 C 36.88572 5.277 36.64772 5.013 36.39572 4.735 C 35.96572 4.256 35.42872 3.662 34.52972 3.662 C 34.29572 3.662 34.04872 3.704 33.79472 3.789 C 33.07972 4.027 32.32072 4.662 31.51772 5.334 C 30.525722 6.164 29.400722 7.104 28.519722 7.104 C 28.450722 7.104 28.383722 7.098 28.318722 7.086 C 27.684722 6.971 26.823722 6.575 25.912722 6.156 C 24.522722 5.517 23.085722 4.857 21.827722 4.857 C 21.629722 4.857 21.440722 4.875 21.260722 4.909 C 21.120722 4.935 20.983722 4.97 20.855722 5.016 C 20.773722 5.046 20.692722 5.078 20.611722 5.112 C 19.852722 5.425 19.070722 5.923 18.475722 6.518 C 18.404722 6.591 18.334722 6.664 18.268722 6.739 C 17.895722 7.16 17.622722 7.622 17.516722 8.098 C 17.374722 8.738 17.554722 9.349 18.023722 9.818 C 18.052722 9.847 18.073722 9.871 18.090722 9.891 C 17.941722 9.998 17.618722 10.126 17.337722 10.228 C 17.260722 10.256 17.185722 10.282 17.118722 10.306 C 17.095722 10.314 17.072722 10.322 17.050722 10.329 C 16.888722 10.386 16.730722 10.441 16.581722 10.497 C 16.507722 10.525 16.434722 10.554 16.365722 10.583 C 16.006722 10.732 15.710722 10.903 15.524722 11.151 C 15.403722 11.312 14.799722 11.445 14.438722 11.525 C 13.703722 11.688 12.787722 11.89 12.787722 12.723 C 12.787722 13.282 12.682722 13.282 12.450722 13.282 C 12.312722 13.282 12.140722 13.257 11.939722 13.206 C 11.748722 13.159 11.530722 13.134 11.292722 13.134 C 9.938722 13.134 7.800722 13.952 7.173722 14.967 C 6.935722 15.351 6.904722 15.763 7.087722 16.127 C 7.577722 17.108 8.689722 21.041 8.086722 22.247 C 7.995722 22.428 7.903722 22.445 7.853722 22.455 C 7.746722 22.474 7.639722 22.484 7.538722 22.484 C 6.888722 22.484 6.400722 22.066 5.784722 21.538 C 5.191722 21.029 4.519722 20.454 3.570722 20.195 C 2.636722 19.94 1.8557218 20.211 1.4497218 20.906 C .8537218 21.926 1.1377218 23.674 2.2117218 25.582 C 3.134722 27.225 3.128722 28.679 2.712722 29.391 C 2.627722 29.537 2.4477218 29.78 2.1957218 29.78 C 1.7437218 29.78 1.3997218 30.03 1.2717218 30.449 C 1.0377218 31.221 1.6927218 32.644 2.4367218 33.725 C 2.4827218 33.791 2.5297218 33.857 2.576722 33.92 C 2.609722 33.966 2.641722 34.011 2.675722 34.054 C 2.742722 34.143 2.810722 34.229 2.877722 34.311 C 3.124722 34.612 3.363722 34.853 3.566722 35.001 C 3.554722 35.066 3.511722 35.172 3.432722 35.312 C 3.390722 35.384 3.339722 35.465 3.276722 35.555 C 3.105722 35.799 2.847722 36.105 2.4767218 36.464 C 2.0377218 36.886 1.6197218 37.206 1.3107218 37.408 C 1.2117218 37.473 1.1237218 37.526 1.0507218 37.565 C .9647218 37.612 .8987218 37.64 .8577218 37.649 C -.0022781517 37.821 -.50327815 39.49 -.72527815 40.47 C -.9712782 41.549 -1.0552782 42.649 -.9642782 43.563 C -.8432782 44.784 -.42727815 45.669 .27372185 46.195 C 2.1267218 47.585 3.945722 48.833 5.820722 48.833 C 6.338722 48.833 6.839722 48.733 7.307722 48.537 C 7.638722 48.4 8.039722 48.22 8.503722 48.012 C 10.438722 47.145 13.360722 45.833 15.125722 45.833 C 15.520722 45.833 15.817722 45.899 16.005722 46.032 C 16.540722 46.406 16.937722 46.883 17.356722 47.386 C 18.198722 48.398 19.153722 49.543 21.335722 49.8 C 21.518722 49.821 21.705722 49.832 21.893722 49.832 C 23.936722 49.832 25.815722 48.558 27.325722 47.533 C 28.002722 47.072 28.643722 46.638 29.129722 46.443 C 29.552722 46.275 30.156722 46.181 30.834722 46.181 C 32.50272 46.181 34.02772 46.734 34.09872 47.365 C 34.15272 47.845 33.72972 48.709 33.35672 49.471 C 32.70772 50.798 31.89972 52.45 33.10572 53.354 C 33.75772 53.844 34.95472 54.065 36.46872 54.345 C 38.47372 54.715 40.96872 55.177 41.90072 56.387 C 42.97372 57.782 43.33472 59.72 42.94072 60.521 C 42.83672 60.731 42.70672 60.816 42.48872 60.816 C 42.35972 60.816 42.20572 60.785 42.03372 60.723 C 41.55872 60.554 41.09772 60.468 40.66372 60.468 C 39.60872 60.468 38.75172 60.994 38.48072 61.809 C 38.23972 62.536 38.52172 63.31 39.21772 63.833 C 39.60272 64.121 40.05372 64.374 40.49172 64.62 C 41.01272 64.914 41.88672 65.405 41.91572 65.678 C 41.92072 65.725 41.86672 65.862 41.62472 66.075 C 39.71672 67.77 39.52472 69.515 41.01772 71.567 C 42.22672 73.231 44.79372 73.705 47.27772 74.162 C 47.98372 74.294 48.71472 74.428 49.38872 74.587 C 49.80472 74.685 50.32872 74.733 50.99072 74.733 C 54.95572 74.733 63.08272 72.912 67.16272 71.606 C 68.26672 71.252 69.36372 71.073 70.42372 71.073 C 72.72272 71.073 74.37272 71.902 75.35972 72.395 L 75.45972 72.445 C 75.73072 72.581 76.02972 72.649 76.35272 72.649 C 77.40972 72.649 78.49772 71.904 79.11872 71.392 C 79.86672 72.371 81.52572 74.253 83.22972 74.253 C 83.89972 74.253 84.55372 73.91 85.17472 73.236 C 86.45372 71.844 87.44772 69.088 87.30172 67.334 C 87.23472 66.53 87.00572 65.827 86.79372 65.241 C 86.76272 65.153 86.73072 65.068 86.70072 64.986 C 86.70072 64.985 86.69972 64.981 86.69872 64.976 Z M 84.31972 72.449 C 84.04972 72.742 83.64272 73.091 83.23172 73.091 C 81.91472 73.091 80.23472 71.008 79.69872 70.207 C 79.60172 70.061 79.44572 69.968 79.27272 69.949 C 79.09872 69.932 78.92572 69.994 78.80372 70.116 C 78.41972 70.498 77.23572 71.486 76.35472 71.486 C 76.21272 71.486 76.09072 71.46 75.98172 71.406 L 75.88472 71.356 C 74.87572 70.851 72.99972 69.911 70.42672 69.911 C 69.24672 69.911 68.03072 70.108 66.81172 70.499 C 62.89772 71.75 54.79072 73.57 50.99472 73.57 C 50.43172 73.57 49.98272 73.53 49.65872 73.455 C 48.95772 73.289 48.21372 73.153 47.49272 73.019 C 45.23372 72.603 42.90072 72.172 41.96272 70.884 C 40.82072 69.314 40.94072 68.247 42.40272 66.946 C 42.90272 66.502 43.12872 66.034 43.07672 65.553 C 42.98372 64.684 42.05172 64.16 41.06572 63.606 C 40.66172 63.378 40.24372 63.144 39.91972 62.902 C 39.62872 62.683 39.50872 62.419 39.58872 62.178 C 39.67172 61.926 40.00572 61.632 40.66672 61.632 C 40.96672 61.632 41.29572 61.695 41.64472 61.82 C 42.69772 62.197 43.56772 61.886 43.98772 61.035 C 44.62472 59.742 44.10472 57.339 42.82572 55.678 C 41.62272 54.114 38.99872 53.629 36.68272 53.201 C 35.48272 52.978 34.24172 52.749 33.80672 52.424 C 33.37172 52.097 33.92172 50.975 34.40572 49.985 C 34.89072 48.991 35.34872 48.054 35.25872 47.237 C 35.08972 45.714 32.84872 45.018 30.838722 45.018 C 30.256722 45.018 29.414722 45.078 28.701722 45.364 C 28.098722 45.605 27.439722 46.052 26.676722 46.57 C 25.298722 47.505 23.584722 48.669 21.898722 48.669 C 21.756722 48.669 21.615722 48.661 21.476722 48.645 C 19.756722 48.443 19.060722 47.608 18.255722 46.642 C 17.805722 46.101 17.339722 45.542 16.677722 45.079 C 16.289722 44.808 15.768722 44.67 15.129722 44.67 C 13.116722 44.67 10.055722 46.043 8.030722 46.95 C 7.574722 47.155 7.180722 47.332 6.864722 47.464 C 6.531722 47.602 6.191722 47.669 5.823722 47.669 C 4.305722 47.669 2.664722 46.532 .9757218 45.265 C .47072185 44.886 .18372185 44.051 .16772185 42.912 C .14372185 41.199 .69072185 39.536 1.0407218 38.948 C 1.0877218 38.87 1.1307218 38.81 1.1677218 38.773 C 1.1957218 38.764 1.2267218 38.754 1.2577218 38.744 C 1.2867218 38.734 1.3177218 38.723 1.3487218 38.71 C 1.4477218 38.669 1.5567218 38.617 1.6697218 38.555 C 2.5427218 38.074 3.762722 36.988 4.365722 36.016 C 4.419722 35.928 4.469722 35.84 4.513722 35.755 C 4.532722 35.718 4.549722 35.681 4.566722 35.645 C 4.601722 35.57 4.629722 35.497 4.653722 35.424 C 4.676722 35.357 4.696722 35.289 4.709722 35.224 C 4.731722 35.115 4.737722 35.007 4.733722 34.905 C 4.729722 34.805 4.711722 34.71 4.682722 34.619 C 4.611722 34.398 4.472722 34.208 4.265722 34.07 C 4.146722 33.991 4.019722 33.872 3.888722 33.728 C 3.816722 33.648 3.743722 33.561 3.669722 33.466 C 3.057722 32.681 2.4367218 31.458 2.3837218 30.934 C 2.917722 30.87 3.397722 30.529 3.718722 29.978 C 4.285722 29.008 4.454722 27.195 3.226722 25.013 C 2.2737218 23.319 2.1597218 22.002 2.4557218 21.495 C 2.5217218 21.38 2.627722 21.263 2.900722 21.263 C 3.006722 21.263 3.129722 21.282 3.264722 21.318 C 3.961722 21.508 4.479722 21.952 5.027722 22.422 C 5.730722 23.025 6.457722 23.649 7.538722 23.649 C 7.709722 23.649 7.885722 23.632 8.062722 23.6 C 8.529722 23.516 8.898722 23.227 9.128722 22.768 C 10.055722 20.914 8.496722 16.368 8.138722 15.626 C 8.249722 15.226 9.947722 14.299 11.293722 14.299 C 11.436722 14.299 11.560722 14.312 11.658722 14.336 C 11.955722 14.411 12.215722 14.446 12.451722 14.446 C 12.994722 14.446 13.893722 14.237 13.950722 12.863 C 14.111722 12.791 14.452722 12.716 14.690722 12.663 C 15.340722 12.519 16.076722 12.356 16.452722 11.854 C 16.502722 11.8 16.639722 11.732 16.803722 11.663 C 16.872722 11.634 16.946722 11.606 17.020722 11.577 C 17.166722 11.522 17.314722 11.471 17.434722 11.429 C 17.483722 11.411 17.533722 11.395 17.582722 11.377 C 17.655722 11.352 17.728722 11.325 17.800722 11.299 C 18.496722 11.044 19.134722 10.739 19.273722 10.137 C 19.361722 9.75 19.217722 9.366 18.847722 8.994 C 18.657722 8.804 18.597722 8.605 18.654722 8.349 C 18.758722 7.884 19.219722 7.338 19.843722 6.875 C 19.931722 6.809 20.023722 6.743 20.119722 6.681 C 20.470722 6.452 20.857722 6.254 21.255722 6.109 C 21.419722 6.049 21.611722 6.02 21.829722 6.02 C 22.371722 6.02 23.023722 6.206 23.700722 6.464 C 23.822722 6.509 23.944722 6.558 24.067722 6.609 C 24.525722 6.798 24.988722 7.01 25.429722 7.213 C 26.409722 7.664 27.334722 8.089 28.113722 8.232 C 28.246722 8.256 28.384722 8.268 28.522722 8.268 C 29.826722 8.268 31.12272 7.183 32.26672 6.226 C 32.95172 5.654 33.65872 5.061 34.16572 4.893 C 34.29972 4.848 34.42272 4.826 34.53172 4.826 C 34.89472 4.826 35.14772 5.088 35.53272 5.514 C 35.85872 5.875 36.22772 6.285 36.76572 6.465 C 36.82572 6.485 37.01072 6.547 37.12472 6.877 C 37.30372 7.401 37.17072 8.199 36.81472 8.733 C 36.00372 9.948 37.23872 13.073 37.63672 14.001 C 37.75672 14.279 38.06872 14.419 38.35572 14.324 C 38.36872 14.32 39.63272 13.907 41.03372 13.907 C 41.40872 13.907 41.76272 13.937 42.08472 13.995 C 42.23672 14.022 42.39672 14.037 42.56272 14.037 C 44.27972 14.037 46.47072 12.494 47.29572 11.862 C 48.32772 12.491 50.81672 13.975 51.65472 14.162 C 51.99772 14.349 52.81772 15.761 52.75372 16.947 C 52.70972 17.75 52.27372 17.997 51.94772 18.113 C 50.72672 18.55 50.18872 18.814 50.01472 19.324 C 49.85372 19.8 50.10872 20.196 50.40472 20.653 C 50.55372 20.886 50.74172 21.177 50.92472 21.541 C 51.47272 22.638 52.71272 22.789 53.97072 22.789 C 54.41572 22.789 54.90572 22.768 55.42372 22.748 C 56.01972 22.725 56.69472 22.697 57.40272 22.697 C 58.50672 22.697 59.50172 22.764 60.44172 22.904 C 61.33772 23.037 61.99972 23.435 62.46172 24.122 C 63.84772 26.178 62.94072 30.011 62.93072 30.049 C 62.86272 30.33 63.01072 30.619 63.28072 30.727 C 63.36272 30.759 63.81772 30.923 64.71372 30.923 C 65.22872 30.923 65.79472 30.868 66.39572 30.759 C 66.50572 30.738 66.60572 30.729 66.70172 30.729 C 67.12872 30.729 67.40072 30.92 67.92772 31.32 C 68.67172 31.884 69.69172 32.657 71.82572 32.861 C 72.05472 32.883 72.28872 32.894 72.51872 32.894 C 74.07172 32.894 75.36172 32.392 76.49972 31.949 C 77.44872 31.58 78.34672 31.231 79.24872 31.231 C 79.64672 31.231 80.03072 31.297 80.41772 31.434 C 80.89672 31.603 81.00672 31.83 81.04672 31.986 C 81.36572 33.231 78.94672 35.945 78.03572 36.967 C 77.92072 37.096 77.81672 37.212 77.72872 37.312 C 77.03072 38.11 76.91872 39.387 77.42972 40.73 C 77.79472 41.689 78.59972 42.856 79.66572 42.989 C 80.44772 43.087 80.91272 45.251 80.73072 46.888 C 80.54772 48.526 81.82572 53.062 81.97172 53.573 C 82.02272 53.753 82.15772 53.896 82.33272 53.961 C 82.96072 54.19 83.86972 54.748 83.86972 55.16 C 83.86972 58.233 85.02572 59.415 85.71572 59.846 C 86.36172 60.249 86.44272 61 86.44572 61.305 C 86.45472 61.912 86.22472 62.476 85.87572 62.71 C 85.75072 62.793 85.64772 62.882 85.56272 62.976 C 85.48272 63.066 85.41972 63.161 85.37172 63.258 C 85.30972 63.38 85.27172 63.507 85.25172 63.639 C 85.22072 63.843 85.23172 64.057 85.27072 64.277 C 85.32172 64.567 85.41772 64.865 85.52272 65.154 C 85.55172 65.235 85.58072 65.314 85.60872 65.392 C 85.61872 65.416 85.62872 65.444 85.63772 65.47 C 85.71372 65.677 85.79172 65.894 85.86572 66.12 C 85.99472 66.525 86.10372 66.963 86.14272 67.433 C 86.25172 68.72 85.47672 71.191 84.31972 72.449 Z" fill="white"/>
          </g>
        </g>
        <g id="Graphic_592">
          <circle cx="12.987722" cy="24.875" r="2.27100362883521" fill="white"/>
        </g>
        <g id="Graphic_591">
          <path d="M 12.987722 22.372 C 11.607722 22.372 10.484722 23.495 10.484722 24.875 C 10.484722 26.256 11.607722 27.379 12.987722 27.379 C 14.367722 27.379 15.490722 26.256 15.490722 24.875 C 15.490722 23.494 14.367722 22.372 12.987722 22.372 Z M 12.987722 27.146 C 11.735722 27.146 10.716722 26.127 10.716722 24.875 C 10.716722 23.624 11.734722 22.605 12.987722 22.605 C 14.239722 22.605 15.258722 23.624 15.258722 24.875 C 15.258722 26.127 14.239722 27.146 12.987722 27.146 Z" fill="white"/>
        </g>
        <g id="Group_589">
          <g id="Graphic_590">
            <path d="M 46.62972 42.497 C 46.70472 42.441 46.78172 42.384 46.85872 42.328 C 46.83572 42.288 46.79872 42.251 46.74472 42.224 C 46.01372 41.86 45.82172 40.748 45.59572 40.044 C 45.40772 39.461 45.16672 38.565 44.47172 38.411 C 43.50672 38.198 42.99072 39.348 42.88972 40.094 C 42.83372 40.512 42.74972 40.822 42.58572 41.093 C 42.79272 41.286 42.63972 41.712 42.33072 41.592 C 42.28772 41.576 42.24872 41.557 42.20872 41.537 C 42.13472 41.603 42.05372 41.671 41.96272 41.738 C 41.53972 42.052 41.19572 42.399 41.11672 42.941 C 41.06272 43.307 41.62372 43.465 41.67872 43.095 C 41.75372 42.574 42.13972 42.335 42.52772 42.035 C 42.92372 41.728 43.18872 41.41 43.33872 40.928 C 43.49372 40.43 43.41672 39.887 43.66672 39.415 C 43.84472 39.079 44.28772 38.823 44.56972 39.136 C 45.01972 39.632 45.13172 40.544 45.34872 41.157 C 45.55972 41.752 45.84872 42.419 46.44072 42.72 C 46.48372 42.636 46.54672 42.558 46.62972 42.497 Z" fill="white"/>
          </g>
        </g>
        <g id="Group_587">
          <g id="Graphic_588">
            <path d="M 42.58572 41.094 C 42.55772 41.069 42.52472 41.047 42.48372 41.031 C 41.93672 40.819 41.76772 40.201 41.53272 39.706 C 41.28372 39.183 41.08772 38.729 41.10172 38.146 C 41.11472 37.62 41.18472 37.044 40.87272 36.584 C 40.67772 36.298 40.29172 35.966 39.91572 36.053 C 39.21772 36.214 39.07672 37.262 38.86972 37.819 C 38.69872 38.281 38.21472 38.521 37.82472 38.77 C 37.34972 39.072 37.02572 39.454 36.84672 39.992 C 36.72772 40.348 37.28972 40.501 37.40872 40.145 C 37.71872 39.214 38.82372 39.062 39.30872 38.252 C 39.45272 38.011 39.78772 36.48 40.12672 36.658 C 40.69272 36.954 40.52872 37.779 40.51572 38.298 C 40.50372 38.734 40.63072 39.077 40.79772 39.472 C 41.13272 40.263 41.40572 41.155 42.20772 41.536 C 42.24772 41.556 42.28672 41.575 42.32972 41.591 C 42.63872 41.713 42.79272 41.287 42.58572 41.094 Z" fill="white"/>
          </g>
        </g>
        <g id="Group_585">
          <g id="Graphic_586">
            <path d="M 48.68572 36.792 C 47.98672 36.34 47.81572 35.159 47.61572 34.421 C 47.43572 33.762 47.26872 32.821 46.68072 32.384 C 46.44772 32.211 46.17572 32.182 45.89872 32.259 C 45.70772 32.313 45.46772 32.49 45.37472 32.669 C 45.31472 32.785 45.24572 33.198 45.15172 33.254 C 44.97372 33.359 44.81772 33.484 44.67372 33.623 C 44.97172 33.792 44.68472 34.262 44.35572 34.111 C 44.33072 34.1 44.30872 34.085 44.28572 34.073 C 43.79772 34.76 43.53572 35.634 43.28972 36.421 C 43.17772 36.781 43.74072 36.933 43.85172 36.576 C 44.17472 35.532 44.51272 34.312 45.50272 33.722 C 45.85772 33.51 45.67372 32.824 46.18472 32.795 C 46.44472 32.779 46.61272 33.221 46.68772 33.404 C 47.18772 34.609 47.18672 36.515 48.39072 37.293 C 48.70772 37.498 48.99972 36.994 48.68572 36.792 Z" fill="white"/>
          </g>
        </g>
        <g id="Group_583">
          <g id="Graphic_584">
            <path d="M 44.67472 33.623 C 44.66572 33.618 44.65772 33.612 44.64972 33.609 C 43.80272 33.22 43.52572 31.171 42.39772 31.402 C 41.77872 31.529 41.34772 32.184 41.12372 32.726 C 40.92972 33.196 40.80472 33.666 40.60172 34.085 C 40.60372 34.182 40.54972 34.268 40.47472 34.322 C 40.29572 34.618 40.05972 34.879 39.70072 35.084 C 39.37372 35.27 39.66672 35.772 39.99372 35.586 C 40.62272 35.229 41.00272 34.73 41.26872 34.065 C 41.55872 33.344 41.66672 32.47 42.38272 32.019 C 42.77872 31.769 43.15072 32.686 43.28772 32.929 C 43.53772 33.369 43.82872 33.831 44.28672 34.073 C 44.30972 34.085 44.33172 34.1 44.35672 34.111 C 44.68472 34.262 44.97172 33.792 44.67472 33.623 Z" fill="white"/>
          </g>
        </g>
        <g id="Group_581">
          <g id="Graphic_582">
            <path d="M 40.59972 34.085 C 40.59972 34.041 40.58772 33.994 40.56172 33.945 C 40.23672 33.358 39.76072 32.867 39.06372 33.179 C 38.45772 33.45 38.13672 34.204 37.69872 34.663 C 37.43972 34.935 37.85072 35.348 38.11072 35.075 C 38.40772 34.763 38.63772 34.394 38.91672 34.066 C 39.05872 33.899 39.22372 33.723 39.43872 33.654 C 39.72472 33.562 39.95972 34.059 40.05972 34.24 C 40.15672 34.415 40.34572 34.412 40.47272 34.322 C 40.54872 34.268 40.60172 34.182 40.59972 34.085 Z" fill="white"/>
          </g>
        </g>
        <g id="Group_579">
          <g id="Graphic_580">
            <path d="M 53.10972 32.056 C 51.89472 31.47 51.59872 29.972 50.96372 28.901 C 50.84472 28.699 50.58672 28.728 50.46172 28.901 C 50.20572 29.253 49.91872 29.588 49.64572 29.93 C 49.62072 29.988 49.58172 30.039 49.53172 30.074 C 49.15172 30.562 48.81272 31.074 48.64772 31.687 C 48.54872 32.05 49.10972 32.204 49.20772 31.842 C 49.44872 30.957 50.10272 30.281 50.67072 29.576 C 51.23672 30.684 51.62372 31.984 52.81672 32.559 C 53.15272 32.721 53.44872 32.219 53.10972 32.056 Z" fill="white"/>
          </g>
        </g>
        <g id="Group_577">
          <g id="Graphic_578">
            <path d="M 49.64472 29.93 C 49.68472 29.834 49.68172 29.718 49.59772 29.618 C 49.20172 29.145 49.32372 28.516 48.77972 28.119 C 48.52172 27.93 48.19772 27.757 48.15972 27.403 C 48.13872 27.215 48.16672 27.018 48.17872 26.829 C 48.23272 25.954 47.68072 25.402 46.76772 25.6 C 45.78872 25.813 45.75172 26.762 45.69172 27.592 C 45.63472 28.375 45.29372 29.154 44.84372 29.868 C 45.15172 30.017 44.99972 30.54 44.65772 30.415 C 44.60772 30.397 44.56072 30.375 44.51472 30.354 C 44.22072 30.763 43.90172 31.143 43.59772 31.481 C 43.34672 31.759 43.75772 32.172 44.00872 31.893 C 44.81572 30.997 45.48772 29.997 45.95272 28.883 C 46.12672 28.468 46.23272 28.039 46.27272 27.592 C 46.30872 27.183 46.25972 26.661 46.54672 26.329 C 46.82872 26.002 47.56172 26.065 47.59872 26.542 C 47.62472 26.884 47.53072 27.227 47.59572 27.568 C 47.67172 27.964 47.94472 28.238 48.26072 28.464 C 48.81972 28.86 48.76572 29.528 49.18472 30.029 C 49.28972 30.154 49.42772 30.146 49.52972 30.074 C 49.58072 30.04 49.61972 29.988 49.64472 29.93 Z" fill="white"/>
          </g>
        </g>
        <g id="Group_575">
          <g id="Graphic_576">
            <path d="M 44.84272 29.868 C 44.83172 29.863 44.82172 29.858 44.81272 29.853 C 44.12672 29.603 43.81172 28.777 43.12572 28.509 C 42.30072 28.186 41.88572 29.127 41.65972 29.746 C 41.53072 30.1 42.09372 30.251 42.22072 29.901 C 42.30872 29.66 42.47972 29.036 42.81972 29.022 C 43.05072 29.012 43.31972 29.346 43.46572 29.49 C 43.79172 29.811 44.09972 30.156 44.51372 30.353 C 44.55972 30.374 44.60672 30.396 44.65672 30.414 C 44.99972 30.54 45.15072 30.017 44.84272 29.868 Z" fill="white"/>
          </g>
        </g>
        <g id="Group_573">
          <g id="Graphic_574">
            <path d="M 41.46672 28.02 C 40.89672 27.703 40.53172 27.17 40.05072 26.746 C 39.88372 26.6 39.63272 26.659 39.56372 26.875 C 39.54672 26.929 39.51072 27.066 39.46072 27.212 C 39.39972 27.386 39.31972 27.571 39.22372 27.647 C 39.18972 27.673 39.15372 27.688 39.11572 27.681 C 38.94472 27.648 38.77872 27.461 38.65072 27.327 C 38.63272 27.308 38.61472 27.291 38.59872 27.275 C 38.54772 27.226 38.49772 27.178 38.44672 27.129 C 38.10472 26.803 37.74872 26.499 37.28272 26.36 C 37.15072 26.32 37.02772 26.386 36.95472 26.494 C 36.38272 27.318 36.09772 28.272 35.29272 28.918 C 34.99972 29.153 35.41472 29.563 35.70372 29.33 C 36.48372 28.704 36.80472 27.809 37.31872 26.996 C 37.73072 27.188 38.01672 27.554 38.35172 27.856 C 38.42072 27.919 38.49372 27.978 38.56872 28.033 C 38.64972 28.091 38.73472 28.144 38.82472 28.188 C 38.98672 28.267 39.13172 28.284 39.25972 28.256 C 39.34272 28.238 39.41872 28.203 39.48872 28.154 C 39.69772 28.006 39.85172 27.737 39.96572 27.468 C 40.34272 27.851 40.69172 28.253 41.17272 28.52 C 41.50172 28.705 41.79472 28.202 41.46672 28.02 Z" fill="white"/>
          </g>
        </g>
        <g id="Group_571">
          <g id="Graphic_572">
            <path d="M 31.54272 41.119 C 31.23572 41.101 30.921722 41.278 30.718722 41.492 C 30.593722 41.625 30.547722 41.805 30.528722 41.995 C 30.607722 42.113 30.584722 42.246 30.512722 42.342 C 30.510722 42.453 30.507722 42.56 30.491722 42.655 C 30.448722 42.937 30.118722 42.778 29.936722 42.828 C 29.728722 42.885 29.585722 43.095 29.460722 43.252 C 29.065722 43.751 28.858722 44.371 28.493722 44.891 C 28.277722 45.199 28.782722 45.489 28.995722 45.185 C 29.245722 44.831 29.432722 44.448 29.632722 44.065 C 29.715722 43.907 29.937722 43.41 30.124722 43.386 C 30.265722 43.368 30.401722 43.439 30.547722 43.399 C 31.38172 43.169 30.773722 42.078 31.32472 41.753 C 32.25572 41.205 33.26972 43.721 33.34372 44.339 C 33.38772 44.707 33.96972 44.712 33.92672 44.339 C 33.78772 43.181 32.88772 41.198 31.54272 41.119 Z" fill="white"/>
          </g>
        </g>
        <g id="Group_569">
          <g id="Graphic_570">
            <path d="M 30.528722 41.995 C 30.520722 41.983 30.512722 41.971 30.503722 41.96 C 29.885722 41.257 29.747722 40.228 28.606722 40.59 C 27.798722 40.845 27.214722 41.388 26.837722 42.071 C 26.304722 41.351 25.278722 40.806 24.574722 40.952 C 24.157722 41.039 23.853722 41.389 23.659722 41.744 C 23.516722 42.002 23.455722 42.251 23.416722 42.54 C 23.385722 42.778 23.304722 43.385 23.048722 43.545 C 22.617722 43.816 22.105722 43.864 21.675722 44.121 C 21.112722 44.458 21.074722 45.247 20.731722 45.745 C 20.516722 46.054 21.021722 46.345 21.233722 46.038 C 21.516722 45.629 21.569722 45.081 21.886722 44.7 C 22.077722 44.47 22.440722 44.467 22.702722 44.38 C 22.881722 44.321 23.027722 44.196 23.194722 44.111 C 23.376722 44.019 23.483722 43.953 23.597722 43.774 C 23.710722 43.596 23.850722 43.362 23.902722 43.158 C 23.983722 42.831 23.962722 42.468 24.104722 42.157 C 24.728722 40.8 26.270722 41.911 26.531722 42.779 C 26.458722 43.008 26.403722 43.245 26.367722 43.485 C 26.326722 43.753 26.632722 43.997 26.853722 43.768 C 27.156722 43.455 27.231722 43.1 27.159722 42.748 C 27.406722 42.111 27.827722 41.587 28.503722 41.252 C 28.924722 41.043 29.187722 40.976 29.421722 41.392 C 29.618722 41.744 29.824722 42.068 30.090722 42.371 C 30.227722 42.527 30.413722 42.47 30.511722 42.341 C 30.584722 42.246 30.607722 42.113 30.528722 41.995 Z" fill="white"/>
          </g>
        </g>
        <g id="Group_567">
          <g id="Graphic_568">
            <path d="M 46.85872 49.696 C 46.75572 49.597 46.61772 49.608 46.51372 49.696 C 46.27072 49.9 46.12772 50.197 45.98072 50.471 C 45.81772 50.779 45.64172 51.202 45.24872 50.958 C 45.12672 50.882 44.91372 50.947 44.89072 51.104 C 44.88572 51.13 44.88372 51.158 44.88072 51.185 C 44.93272 51.249 44.99072 51.304 45.05372 51.348 C 45.30672 51.522 45.07572 51.93 44.82272 51.779 C 44.78572 52.42 44.81372 53.062 44.81772 53.706 C 44.81872 54.02 45.30672 54.02 45.30472 53.706 C 45.30072 52.98 45.25372 52.247 45.32572 51.522 C 46.02672 51.696 46.28072 50.746 46.69172 50.22 C 47.49972 51.081 48.10872 52.371 48.27372 53.51 C 48.31872 53.821 48.78872 53.688 48.74372 53.38 C 48.55372 52.081 47.80772 50.602 46.85872 49.696 Z" fill="white"/>
          </g>
        </g>
        <g id="Group_565">
          <g id="Graphic_566">
            <path d="M 45.05272 51.348 C 44.98972 51.304 44.93172 51.249 44.87972 51.185 C 44.38572 50.581 44.27172 49.179 43.31272 49.384 C 42.92272 49.467 42.74372 50.017 42.62972 50.336 C 42.58572 50.456 42.55172 50.597 42.51772 50.744 C 42.46072 50.277 42.34672 49.823 42.11972 49.375 C 41.82372 48.793 41.48772 48.146 40.75372 48.412 C 40.13472 48.636 39.70672 49.217 39.32072 49.721 C 38.83572 50.358 38.42872 51.052 37.95372 51.697 C 37.76672 51.95 38.18972 52.193 38.37472 51.943 C 39.06872 51.001 39.61672 49.914 40.49772 49.125 C 40.62972 49.006 40.98272 48.74 41.17072 48.826 C 41.39072 48.928 41.58672 49.426 41.69672 49.623 C 42.08672 50.316 42.08172 51.114 42.08272 51.885 C 42.08272 52.086 42.35572 52.224 42.49972 52.058 C 43.01372 51.458 42.85572 50.474 43.39672 49.89 C 43.63472 49.633 43.99972 50.578 44.06072 50.71 C 44.24272 51.108 44.43472 51.516 44.80572 51.771 C 44.81072 51.775 44.81672 51.776 44.82072 51.78 C 45.07572 51.93 45.30572 51.522 45.05272 51.348 Z" fill="white"/>
          </g>
        </g>
        <g id="Graphic_564">
          <path d="M 17.471722 22.694 C 17.046722 22.85 16.793722 22.96 16.783722 22.965 C 16.460722 23.107 16.312722 23.484 16.455722 23.809 C 16.560722 24.048 16.795722 24.191 17.042722 24.191 C 17.127722 24.191 17.214722 24.174 17.298722 24.137 C 17.300722 24.137 17.528722 24.037 17.911722 23.898 C 18.243722 23.776 18.414722 23.409 18.293722 23.077 C 18.172722 22.745 17.803722 22.573 17.471722 22.694 Z" fill="white"/>
        </g>
        <g id="Group_562">
          <g id="Graphic_563">
            <path d="M 34.32672 32.352 C 33.97472 32.395 33.72572 32.715 33.76872 33.066 C 33.82172 33.498 33.85372 33.945 33.86472 34.398 C 33.87272 34.747 34.15772 35.023 34.50472 35.023 C 34.50972 35.023 34.51472 35.023 34.51972 35.023 C 34.87372 35.014 35.15372 34.721 35.14472 34.368 C 35.13272 33.873 35.09772 33.384 35.03972 32.91 C 34.99772 32.559 34.67872 32.309 34.32672 32.352 Z" fill="white"/>
          </g>
        </g>
        <g id="Group_560">
          <g id="Graphic_561">
            <path d="M 33.23372 30.696 C 33.32472 30.963 33.57372 31.131 33.83972 31.131 C 33.90772 31.131 33.97672 31.12 34.04572 31.097 C 34.37972 30.984 34.55972 30.62 34.44672 30.285 C 34.28772 29.818 34.10072 29.359 33.88872 28.918 C 33.73572 28.599 33.35372 28.465 33.03472 28.618 C 32.71572 28.771 32.58072 29.153 32.73472 29.472 C 32.92472 29.866 33.09172 30.278 33.23372 30.696 Z" fill="white"/>
          </g>
        </g>
        <g id="Group_558">
          <g id="Graphic_559">
            <path d="M 66.67772 46.899 C 66.56172 47.233 66.73872 47.597 67.07272 47.713 C 67.14072 47.738 67.21372 47.751 67.28372 47.751 C 67.54772 47.751 67.79572 47.585 67.88772 47.32 L 67.94272 47.165 C 68.09272 46.74 68.22072 46.328 68.32472 45.939 C 68.41572 45.597 68.21272 45.247 67.87072 45.155 C 67.52872 45.065 67.17872 45.268 67.08672 45.61 C 66.99272 45.965 66.87372 46.345 66.73472 46.738 Z" fill="white"/>
          </g>
        </g>
        <g id="Group_556">
          <g id="Graphic_557">
            <path d="M 57.37272 38.077 C 57.39572 38.077 57.41972 38.075 57.44372 38.073 C 57.87772 38.024 58.30772 38.014 58.72572 38.044 C 59.07672 38.067 59.38372 37.803 59.40872 37.45 C 59.43372 37.097 59.16772 36.791 58.81472 36.767 C 58.31972 36.732 57.81172 36.744 57.30172 36.801 C 56.94972 36.84 56.69772 37.156 56.73572 37.509 C 56.77272 37.834 57.05072 38.077 57.37272 38.077 Z" fill="white"/>
          </g>
        </g>
        <g id="Group_554">
          <g id="Graphic_555">
            <path d="M 31.45172 27.423 C 31.57772 27.583 31.76472 27.666 31.95272 27.666 C 32.09272 27.666 32.23272 27.621 32.35072 27.527 C 32.62772 27.308 32.67472 26.904 32.45472 26.628 C 32.15372 26.247 31.82272 25.877 31.47372 25.528 C 31.22372 25.278 30.817722 25.279 30.567722 25.529 C 30.317722 25.78 30.317722 26.185 30.568722 26.435 C 30.883722 26.748 31.18072 27.081 31.45172 27.423 Z" fill="white"/>
          </g>
        </g>
        <g id="Group_552">
          <g id="Graphic_553">
            <path d="M 27.531722 24.211 C 27.925722 24.42 28.312722 24.65 28.678722 24.894 C 28.787722 24.967 28.910722 25.001 29.033722 25.001 C 29.240722 25.001 29.443722 24.901 29.566722 24.715 C 29.762722 24.421 29.683722 24.024 29.388722 23.828 C 28.985722 23.559 28.562722 23.307 28.129722 23.078 C 27.816722 22.913 27.430722 23.031 27.263722 23.345 C 27.099722 23.658 27.219722 24.045 27.531722 24.211 Z" fill="white"/>
          </g>
        </g>
        <g id="Group_550">
          <g id="Graphic_551">
            <path d="M 44.55172 43.943 C 44.13072 44.213 43.74972 44.437 43.39072 44.629 C 43.07872 44.795 42.95972 45.183 43.12572 45.495 C 43.24072 45.712 43.46272 45.835 43.69172 45.835 C 43.79372 45.835 43.89672 45.811 43.99272 45.76 C 44.38272 45.552 44.79172 45.311 45.24272 45.021 C 45.53972 44.831 45.62672 44.434 45.43472 44.136 C 45.24572 43.838 44.84872 43.751 44.55172 43.943 Z" fill="white"/>
          </g>
        </g>
        <g id="Group_548">
          <g id="Graphic_549">
            <path d="M 41.20572 45.412 C 41.06472 45.43 40.92572 45.438 40.79272 45.438 C 40.79272 45.438 40.79172 45.438 40.79072 45.438 C 40.49472 45.438 40.20972 45.427 39.94472 45.405 C 39.59172 45.377 39.28172 45.638 39.25372 45.991 C 39.22372 46.344 39.48572 46.652 39.83872 46.681 C 40.13872 46.706 40.45872 46.719 40.78972 46.719 C 40.97472 46.715 41.17172 46.706 41.36772 46.681 C 41.71772 46.636 41.96672 46.317 41.92172 45.965 C 41.87772 45.615 41.55672 45.367 41.20572 45.412 Z" fill="white"/>
          </g>
        </g>
        <g id="Group_546">
          <g id="Graphic_547">
            <path d="M 37.75172 44.81 C 37.39972 44.614 37.09872 44.372 36.82972 44.074 C 36.59372 43.81 36.18872 43.788 35.92572 44.023 C 35.66272 44.26 35.63972 44.665 35.87672 44.928 C 36.23572 45.329 36.65672 45.665 37.12772 45.928 C 37.22572 45.983 37.33372 46.01 37.43972 46.01 C 37.66372 46.01 37.88172 45.891 37.99972 45.681 C 38.17072 45.372 38.05972 44.982 37.75172 44.81 Z" fill="white"/>
          </g>
        </g>
        <g id="Group_544">
          <g id="Graphic_545">
            <path d="M 67.39272 43.269 C 67.40972 43.613 67.69172 43.88 68.03172 43.88 C 68.04272 43.88 68.05272 43.88 68.06272 43.878 C 68.41672 43.861 68.68872 43.563 68.67172 43.209 C 68.64572 42.653 68.54472 42.129 68.37272 41.653 C 68.25272 41.32 67.88572 41.148 67.55272 41.268 C 67.22072 41.388 67.04772 41.755 67.16772 42.088 C 67.29772 42.445 67.37272 42.842 67.39272 43.269 Z" fill="white"/>
          </g>
        </g>
        <g id="Group_542">
          <g id="Graphic_543">
            <path d="M 53.03572 38.905 C 53.14572 39.133 53.37472 39.263 53.61072 39.263 C 53.70472 39.263 53.80072 39.242 53.89272 39.197 C 54.31072 38.99 54.72472 38.809 55.11972 38.659 C 55.44972 38.533 55.61672 38.164 55.48972 37.833 C 55.36472 37.502 54.99572 37.336 54.66372 37.462 C 54.23172 37.627 53.78172 37.824 53.32672 38.047 C 53.00872 38.203 52.87872 38.587 53.03572 38.905 Z" fill="white"/>
          </g>
        </g>
        <g id="Group_540">
          <g id="Graphic_541">
            <path d="M 46.48972 43.393 C 46.61472 43.564 46.80972 43.655 47.00772 43.655 C 47.13972 43.655 47.27172 43.615 47.38572 43.532 C 47.68872 43.309 47.99472 43.083 48.30472 42.854 L 48.51672 42.698 C 48.80072 42.488 48.86172 42.088 48.65072 41.802 C 48.44072 41.518 48.04072 41.458 47.75472 41.668 L 47.54372 41.823 C 47.31472 41.994 47.08572 42.161 46.85872 42.328 C 46.78172 42.384 46.70472 42.441 46.62972 42.497 C 46.54672 42.558 46.48372 42.636 46.44172 42.722 C 46.33272 42.931 46.34172 43.19 46.48972 43.393 Z" fill="white"/>
          </g>
        </g>
        <g id="Group_538">
          <g id="Graphic_539">
            <path d="M 34.58272 38.988 C 34.93672 38.967 35.20672 38.666 35.18672 38.313 C 35.16272 37.884 35.14672 37.422 35.13872 36.939 C 35.13272 36.585 34.84472 36.305 34.48872 36.309 C 34.13472 36.315 33.85272 36.606 33.85872 36.959 C 33.86672 37.459 33.88372 37.938 33.90772 38.384 C 33.92672 38.725 34.20872 38.989 34.54672 38.989 C 34.55772 38.989 34.57072 38.988 34.58272 38.988 Z" fill="white"/>
          </g>
        </g>
        <g id="Group_536">
          <g id="Graphic_537">
            <path d="M 61.14272 38.496 C 61.61372 38.608 62.05872 38.725 62.46372 38.845 C 62.52472 38.863 62.58472 38.87 62.64472 38.87 C 62.92172 38.87 63.17772 38.689 63.25972 38.41 C 63.35872 38.07 63.16372 37.716 62.82372 37.615 C 62.39672 37.49 61.92972 37.367 61.43872 37.25 C 61.09372 37.168 60.74972 37.381 60.66772 37.725 C 60.58672 38.07 60.79872 38.415 61.14272 38.496 Z" fill="white"/>
          </g>
        </g>
        <g id="Group_534">
          <g id="Graphic_535">
            <path d="M 64.75672 39.71 C 65.17172 39.917 65.53872 40.141 65.84872 40.375 C 65.96372 40.463 66.09972 40.505 66.23572 40.505 C 66.42872 40.505 66.62072 40.418 66.74672 40.252 C 66.96072 39.97 66.90472 39.568 66.62272 39.355 C 66.24972 39.073 65.81372 38.806 65.32972 38.565 C 65.01372 38.408 64.62872 38.536 64.47072 38.852 C 64.31272 39.168 64.43972 39.553 64.75672 39.71 Z" fill="white"/>
          </g>
        </g>
        <g id="Group_532">
          <g id="Graphic_533">
            <path d="M 51.03572 39.359 C 50.65972 39.6 50.27172 39.86 49.85172 40.152 C 49.56172 40.354 49.48972 40.754 49.69072 41.044 C 49.81572 41.223 50.01472 41.319 50.21672 41.319 C 50.34372 41.319 50.47072 41.282 50.58172 41.204 C 50.98972 40.921 51.36372 40.67 51.72672 40.437 C 52.02472 40.246 52.11172 39.849 51.91972 39.551 C 51.72972 39.254 51.33372 39.167 51.03572 39.359 Z" fill="white"/>
          </g>
        </g>
        <g id="Group_530">
          <g id="Graphic_531">
            <path d="M 35.76872 42.066 C 35.64872 41.68 35.54472 41.249 35.45972 40.783 C 35.39572 40.435 35.06372 40.204 34.71372 40.267 C 34.36572 40.33 34.13572 40.663 34.19872 41.012 C 34.29372 41.529 34.40972 42.012 34.54472 42.447 C 34.62972 42.721 34.88272 42.896 35.15572 42.896 C 35.21872 42.896 35.28272 42.887 35.34672 42.868 C 35.68572 42.763 35.87372 42.404 35.76872 42.066 Z" fill="white"/>
          </g>
        </g>
        <g id="Graphic_529">
          <path d="M 22.174722 22.283 C 22.133722 21.932 21.814722 21.68 21.464722 21.721 C 20.999722 21.775 20.515722 21.855 20.024722 21.959 C 19.679722 22.033 19.458722 22.373 19.531722 22.718 C 19.595722 23.02 19.861722 23.227 20.157722 23.227 C 20.201722 23.227 20.245722 23.222 20.290722 23.213 C 20.742722 23.117 21.187722 23.043 21.613722 22.994 C 21.963722 22.953 22.214722 22.636 22.174722 22.283 Z" fill="white"/>
        </g>
        <g id="Group_527">
          <g id="Graphic_528">
            <path d="M 66.74372 51.056 C 66.84672 50.643 66.96872 50.197 67.10472 49.733 C 67.20572 49.392 67.01072 49.037 66.67172 48.937 C 66.33172 48.837 65.97672 49.031 65.87572 49.371 C 65.73372 49.853 65.60672 50.316 65.49972 50.748 C 65.41472 51.091 65.62272 51.438 65.96772 51.524 C 66.01972 51.536 66.07172 51.543 66.12172 51.543 C 66.40972 51.542 66.67172 51.348 66.74372 51.056 Z" fill="white"/>
          </g>
        </g>
        <g id="Graphic_526">
          <path d="M 24.014722 22.986 C 24.267722 23.02 24.513722 23.067 24.745722 23.124 C 24.919722 23.167 25.097722 23.217 25.275722 23.272 C 25.338722 23.292 25.401722 23.3 25.463722 23.3 C 25.737722 23.3 25.990722 23.123 26.075722 22.847 C 26.179722 22.508 25.989722 22.15 25.650722 22.047 C 25.451722 21.987 25.251722 21.93 25.056722 21.882 C 24.778722 21.813 24.484722 21.757 24.183722 21.716 C 23.832722 21.67 23.510722 21.915 23.463722 22.266 C 23.416722 22.616 23.663722 22.939 24.014722 22.986 Z" fill="white"/>
        </g>
        <g id="Group_524">
          <g id="Graphic_525">
            <path d="M 68.85472 61.447 C 68.26172 61.447 67.74672 61.019 67.64372 60.427 C 67.22072 59.46 63.24772 56.367 59.76072 54.059 C 59.19472 53.683 59.03872 52.919 59.41472 52.352 C 59.78872 51.785 60.55372 51.628 61.12072 52.006 C 65.08372 54.63 69.85372 58.159 70.07872 60.071 C 70.15772 60.746 69.67472 61.358 68.99972 61.437 C 68.95172 61.445 68.90272 61.447 68.85472 61.447 Z" fill="white"/>
          </g>
        </g>
        <g id="Group_522">
          <g id="Graphic_523">
            <path d="M 60.44272 61.447 C 60.39472 61.447 60.34572 61.444 60.29672 61.438 C 59.62172 61.359 59.13872 60.747 59.21772 60.072 C 59.44172 58.16 64.21272 54.631 68.17472 52.007 C 68.74272 51.629 69.50672 51.785 69.88172 52.353 C 70.25772 52.92 70.10272 53.684 69.53472 54.06 C 66.04872 56.37 62.07472 59.462 61.65272 60.428 C 61.55072 61.02 61.03572 61.447 60.44272 61.447 Z" fill="white"/>
          </g>
        </g>
      </g>
    </g>
  </g>
</svg>
