<?xml version="1.0" encoding="UTF-8" standalone="no"?>
<!DOCTYPE svg PUBLIC "-//W3C//DTD SVG 1.1//EN" "http://www.w3.org/Graphics/SVG/1.1/DTD/svg11.dtd">
<svg version="1.1" xmlns="http://www.w3.org/2000/svg" xmlns:xl="http://www.w3.org/1999/xlink" xmlns:dc="http://purl.org/dc/elements/1.1/" viewBox="451 406 28 28" width="28" height="28">
  <defs/>
  <metadata> Produced by OmniGraffle 7.10.1 
    <dc:date>2021-10-07 11:56:11 +0000</dc:date>
  </metadata>
  <g id="Canvas_1" stroke-opacity="1" stroke-dasharray="none" fill="none" fill-opacity="1" stroke="none">
    <title>Canvas 1</title>
    <g id="Canvas_1: Layer 1">
      <title>Layer 1</title>
      <g id="Group_4">
        <g id="Graphic_13">
          <path d="M 458 406 C 457.4477 406 457 406.4477 457 407 L 457 408 L 455 408 C 452.8013 408 451 409.8013 451 412 L 451 430 C 451 432.1987 452.8013 434 455 434 L 475 434 C 477.1987 434 479 432.1987 479 430 L 479 412 C 479 409.8013 477.1987 408 475 408 L 473 408 L 473 407 C 473 406.4477 472.5523 406 472 406 C 471.4477 406 471 406.4477 471 407 L 471 408 L 466 408 L 466 407 C 466 406.4477 465.5523 406 465 406 C 464.4477 406 464 406.4477 464 407 L 464 408 L 459 408 L 459 407 C 459 406.4477 458.5523 406 458 406 Z M 455 410 L 457 410 L 457 411 C 457 411.5523 457.4477 412 458 412 C 458.5523 412 459 411.5523 459 411 L 459 410 L 464 410 L 464 411 C 464 411.5523 464.4477 412 465 412 C 465.5523 412 466 411.5523 466 411 L 466 410 L 471 410 L 471 411 C 471 411.5523 471.4477 412 472 412 C 472.5523 412 473 411.5523 473 411 L 473 410 L 475 410 C 476.1253 410 477 410.8747 477 412 L 477 414 L 453 414 L 453 412 C 453 410.8747 453.8747 410 455 410 Z M 453 416 L 477 416 L 477 430 C 477 431.1253 476.1253 432 475 432 L 455 432 C 453.8747 432 453 431.1253 453 430 Z" fill="white"/>
        </g>
        <g id="Graphic_12">
          <path d="M 456.50344 419.00284 L 458.4994 419.00284 C 458.77673 419.00284 459 419.2261 459 419.50344 L 459 421.4994 C 459 421.77673 458.77673 422 458.4994 422 L 456.50344 422 C 456.2261 422 456.00284 421.77673 456.00284 421.4994 L 456.00284 419.50344 C 456.00284 419.2261 456.2261 419.00284 456.50344 419.00284 Z" fill="white"/>
        </g>
        <g id="Graphic_11">
          <path d="M 461.5006 419.00284 L 463.49656 419.00284 C 463.7739 419.00284 463.99716 419.2261 463.99716 419.50344 L 463.99716 421.4994 C 463.99716 421.77673 463.7739 422 463.49656 422 L 461.5006 422 C 461.22327 422 461 421.77673 461 421.4994 L 461 419.50344 C 461 419.2261 461.22327 419.00284 461.5006 419.00284 Z" fill="white"/>
        </g>
        <g id="Graphic_10">
          <path d="M 466.50344 419.00284 L 468.4994 419.00284 C 468.77673 419.00284 469 419.2261 469 419.50344 L 469 421.4994 C 469 421.77673 468.77673 422 468.4994 422 L 466.50344 422 C 466.2261 422 466.00284 421.77673 466.00284 421.4994 L 466.00284 419.50344 C 466.00284 419.2261 466.2261 419.00284 466.50344 419.00284 Z" fill="white"/>
        </g>
        <g id="Graphic_9">
          <path d="M 471.5006 419.00284 L 473.49656 419.00284 C 473.7739 419.00284 473.99716 419.2261 473.99716 419.50344 L 473.99716 421.4994 C 473.99716 421.77673 473.7739 422 473.49656 422 L 471.5006 422 C 471.22327 422 471 421.77673 471 421.4994 L 471 419.50344 C 471 419.2261 471.22327 419.00284 471.5006 419.00284 Z" fill="white"/>
        </g>
        <g id="Graphic_8">
          <path d="M 456.50344 425 L 458.4994 425 C 458.77673 425 459 425.22327 459 425.5006 L 459 427.49656 C 459 427.7739 458.77673 427.99716 458.4994 427.99716 L 456.50344 427.99716 C 456.2261 427.99716 456.00284 427.7739 456.00284 427.49656 L 456.00284 425.5006 C 456.00284 425.22327 456.2261 425 456.50344 425 Z" fill="white"/>
        </g>
        <g id="Graphic_7">
          <path d="M 461.5006 425 L 463.49656 425 C 463.7739 425 463.99716 425.22327 463.99716 425.5006 L 463.99716 427.49656 C 463.99716 427.7739 463.7739 427.99716 463.49656 427.99716 L 461.5006 427.99716 C 461.22327 427.99716 461 427.7739 461 427.49656 L 461 425.5006 C 461 425.22327 461.22327 425 461.5006 425 Z" fill="white"/>
        </g>
        <g id="Graphic_6">
          <path d="M 466.50344 425 L 468.4994 425 C 468.77673 425 469 425.22327 469 425.5006 L 469 427.49656 C 469 427.7739 468.77673 427.99716 468.4994 427.99716 L 466.50344 427.99716 C 466.2261 427.99716 466.00284 427.7739 466.00284 427.49656 L 466.00284 425.5006 C 466.00284 425.22327 466.2261 425 466.50344 425 Z" fill="white"/>
        </g>
        <g id="Graphic_5">
          <path d="M 471.5006 425 L 473.49656 425 C 473.7739 425 473.99716 425.22327 473.99716 425.5006 L 473.99716 427.49656 C 473.99716 427.7739 473.7739 427.99716 473.49656 427.99716 L 471.5006 427.99716 C 471.22327 427.99716 471 427.7739 471 427.49656 L 471 425.5006 C 471 425.22327 471.22327 425 471.5006 425 Z" fill="white"/>
        </g>
      </g>
    </g>
  </g>
</svg>
