<svg xmlns="http://www.w3.org/2000/svg" data-name="Layer 1" viewBox="0 0 32 40" x="0px" y="0px"><title>UI</title><path d="M31,30H2V1A1,1,0,0,0,0,1V31a1,1,0,0,0,1,1H31a1,1,0,0,0,0-2Z"/><path d="M30.76,4.35a1,1,0,0,0-1.41-.12L16.7,14.95,10.14,14a1,1,0,0,0-1.06.61l-5,12a1,1,0,1,0,1.85.77l4.7-11.29,6.23.89a1,1,0,0,0,.79-.23l13-11A1,1,0,0,0,30.76,4.35Z"/><path d="M30,28a1,1,0,0,0,1-1V10a1,1,0,0,0-2,0V27A1,1,0,0,0,30,28Z"/><path d="M20,18v9a1,1,0,0,0,2,0V18a1,1,0,0,0-2,0Z"/><path d="M11,20v7a1,1,0,0,0,2,0V20a1,1,0,0,0-2,0Z"/></svg>