<svg xmlns:dc="http://purl.org/dc/elements/1.1/" xmlns:cc="http://creativecommons.org/ns#" xmlns:rdf="http://www.w3.org/1999/02/22-rdf-syntax-ns#" xmlns:svg="http://www.w3.org/2000/svg" xmlns="http://www.w3.org/2000/svg" xmlns:sodipodi="http://sodipodi.sourceforge.net/DTD/sodipodi-0.dtd" xmlns:inkscape="http://www.inkscape.org/namespaces/inkscape" version="1.1" x="0px" y="0px" viewBox="0 0 100 125"><g transform="translate(0,-952.36218)"><path style="text-indent:0;text-transform:none;direction:ltr;block-progression:tb;baseline-shift:baseline;color:#000000;enable-background:accumulate;" d="m 75.920494,964.36218 c -3.262974,0 -6.671469,1.0679 -9.363723,3.25 -2.692253,2.1821 -4.619437,5.59478 -4.619437,9.75 l 0,1 a 1.997794,2.0002 0 1 0 3.995189,0 l 0,-1 c 0,-2.95731 1.252698,-5.08523 3.152453,-6.625 1.899755,-1.53977 4.495395,-2.375 6.835518,-2.375 3.367223,0 5.769067,0.98251 7.397341,2.625 1.628274,1.64249 2.59063,4.06115 2.59063,7.375 0,6.42509 -4.553555,11 -11.111618,11 l -19.289269,0 c 0.900464,-1.37008 1.435771,-3.01563 1.435771,-4.78125 0,-2.33884 -0.757911,-4.46682 -2.278506,-5.96875 -1.520595,-1.50193 -3.689091,-2.25 -6.08642,-2.25 -1.812342,0 -3.663722,0.53237 -5.274897,1.625 -1.611176,1.09263 -2.985709,2.82557 -3.308516,5.0625 a 1.9977939,2.0001999 0 1 0 3.932764,0.59375 c 0.140407,-0.97297 0.699866,-1.73886 1.591833,-2.34375 0.891967,-0.60489 2.108278,-0.9375 3.058816,-0.9375 1.607443,0 2.616575,0.44113 3.277303,1.09375 0.660728,0.65262 1.092434,1.60204 1.092434,3.125 0,2.83899 -1.920594,4.78125 -4.962773,4.78125 l -24.002343,0 a 1.997794,2.0002 0 1 0 0,4 l 50.813803,0 c 8.524176,0 15.106807,-6.57191 15.106807,-15 0,-4.11274 -1.266261,-7.71788 -3.745489,-10.21875 -2.479229,-2.50087 -6.063775,-3.78125 -10.237671,-3.78125 z m -58.117507,36.00002 a 1.9997877,2.0021961 0 1 0 0.187274,4 l 51.93745,0 c 8.887853,0 15.980754,7.1082 15.980754,15.9375 0,4.5576 -1.343442,8.5317 -3.932763,11.375 -2.589322,2.8433 -6.455557,4.6875 -12.047991,4.6875 -4.429506,0 -7.971777,-2.2025 -10.081608,-6 a 2.0054552,2.0078704 0 1 0 -3.49579,1.9687 c 2.74714,4.9446 7.780191,8.0313 13.577398,8.0313 6.48998,0 11.60274,-2.2581 14.981957,-5.9688 3.379218,-3.7106 4.993986,-8.7418 4.993986,-14.0937 0,-10.9897 -8.943855,-19.9375 -19.975943,-19.9375 l -51.93745,0 a 1.997794,2.0002 0 0 0 -0.187274,0 z m -5.992783,12 a 1.9997877,2.0021961 0 1 0 0.187274,4 l 42.948277,0 a 1.9977939,2.0001999 0 1 0 0,-4 l -42.948277,0 a 1.9977939,2.0001999 0 0 0 -0.187274,0 z" fill="#000000" fill-opacity="1" stroke="none" marker="none" visibility="visible" display="inline" overflow="visible"/></g></svg>