<svg width="36" height="36" viewBox="0 0 36 36" fill="none" xmlns="http://www.w3.org/2000/svg">
<path d="M23.6031 12.9954C22.5858 12.5263 21.5115 12.1926 20.4077 12.0029C20.3977 12.0008 20.3873 12.0021 20.3781 12.0065C20.3689 12.0109 20.3614 12.0182 20.3568 12.0273C20.2104 12.2929 20.0775 12.5657 19.9587 12.8448C18.7693 12.6631 17.5591 12.6631 16.3697 12.8448C16.2504 12.5648 16.1153 12.2919 15.965 12.0273C15.9603 12.0182 15.9528 12.0109 15.9437 12.0065C15.9345 12.0021 15.9241 12.0008 15.9141 12.0029C14.8104 12.1932 13.7362 12.5268 12.7187 12.9954C12.714 12.9967 12.7096 12.9989 12.7058 13.002C12.7019 13.005 12.6988 13.0088 12.6965 13.0132C10.6621 16.0593 10.1048 19.0302 10.3768 21.9656C10.3792 21.9805 10.3871 21.9939 10.3989 22.0033C11.5832 22.8851 12.9082 23.5593 14.3175 23.9971C14.3274 24.0002 14.338 24.0001 14.3479 23.9969C14.3578 23.9938 14.3665 23.9876 14.3728 23.9794C14.6774 23.5641 14.9467 23.1239 15.1777 22.6634C15.181 22.6573 15.1829 22.6505 15.1833 22.6435C15.1837 22.6365 15.1826 22.6295 15.1801 22.623C15.1776 22.6165 15.1737 22.6106 15.1687 22.6058C15.1637 22.6009 15.1577 22.5971 15.1512 22.5948C14.7285 22.4313 14.319 22.2358 13.9261 22.0099C13.9192 22.0052 13.9136 21.9989 13.9098 21.9916C13.9059 21.9843 13.9039 21.9761 13.9039 21.9678C13.9039 21.9595 13.9059 21.9513 13.9098 21.944C13.9136 21.9367 13.9192 21.9304 13.9261 21.9257L14.1693 21.7352C14.1768 21.7299 14.1857 21.7271 14.1948 21.7271C14.2039 21.7271 14.2127 21.7299 14.2202 21.7352C15.4547 22.3155 16.8016 22.6163 18.1653 22.6163C19.529 22.6163 20.8759 22.3155 22.1104 21.7352C22.118 21.7302 22.1268 21.7276 22.1359 21.7276C22.1449 21.7276 22.1537 21.7302 22.1613 21.7352C22.2409 21.8017 22.3227 21.8659 22.4045 21.9279C22.4114 21.9326 22.417 21.9389 22.4208 21.9462C22.4247 21.9536 22.4267 21.9617 22.4267 21.97C22.4267 21.9783 22.4247 21.9865 22.4208 21.9938C22.417 22.0012 22.4114 22.0074 22.4045 22.0121C22.0132 22.2404 21.6034 22.4353 21.1794 22.5948C21.173 22.5976 21.1672 22.6018 21.1624 22.6069C21.1576 22.612 21.1538 22.6181 21.1514 22.6247C21.1489 22.6312 21.1478 22.6383 21.148 22.6453C21.1483 22.6523 21.1499 22.6593 21.1529 22.6657C21.3891 23.1199 21.6574 23.5567 21.9556 23.9727C21.9619 23.981 21.9706 23.9871 21.9805 23.9903C21.9904 23.9934 22.001 23.9935 22.0109 23.9905C23.423 23.5543 24.7504 22.88 25.9361 21.9966C25.9423 21.9925 25.9474 21.9869 25.9509 21.9803C25.9544 21.9737 25.9561 21.9664 25.956 21.9589C26.28 18.7945 25.4523 15.6193 23.6252 13.0176C23.6235 13.0124 23.6206 13.0078 23.6167 13.0039C23.6129 13.0001 23.6082 12.9972 23.6031 12.9954ZM15.5603 20.18C14.7863 20.18 14.1494 19.4666 14.1494 18.5938C14.1494 17.7209 14.773 17.0053 15.5603 17.0053C16.3475 17.0053 16.9822 17.7231 16.9712 18.5915C16.9601 19.46 16.3453 20.18 15.5603 20.18ZM20.777 20.18C20.003 20.18 19.3661 19.4666 19.3661 18.5938C19.3661 17.7209 19.9897 17.0053 20.777 17.0053C21.5642 17.0053 22.1989 17.7231 22.1878 18.5915C22.1768 19.46 21.5686 20.18 20.777 20.18Z" fill="#FC70FF"/>
</svg>
