<svg width="36" height="36" viewBox="0 0 36 36" fill="none" xmlns="http://www.w3.org/2000/svg">
<g clip-path="url(#clip0_1_79)">
<path d="M18 12.2604C19.8692 12.2604 20.0904 12.2676 20.8287 12.3012C21.5111 12.3324 21.8818 12.4463 22.1285 12.5421C22.4329 12.6542 22.7083 12.8332 22.9343 13.0659C23.167 13.2919 23.346 13.5673 23.4581 13.8717C23.554 14.1185 23.6679 14.4892 23.699 15.1716C23.7326 15.9099 23.7399 16.1311 23.7399 18.0003C23.7399 19.8695 23.7326 20.0907 23.699 20.8289C23.6679 21.5114 23.554 21.8821 23.4581 22.1288C23.3415 22.4306 23.1631 22.7047 22.9343 22.9335C22.7056 23.1623 22.4315 23.3407 22.1296 23.4573C21.8829 23.5531 21.5122 23.6671 20.8298 23.6982C20.0918 23.7318 19.8703 23.739 18.0011 23.739C16.1319 23.739 15.9104 23.7318 15.1724 23.6982C14.49 23.6671 14.1193 23.5531 13.8726 23.4573C13.5682 23.3452 13.2928 23.1662 13.0668 22.9335C12.8341 22.7075 12.6551 22.4321 12.543 22.1277C12.4471 21.8809 12.3332 21.5103 12.3021 20.8278C12.2685 20.0895 12.2612 19.8684 12.2612 17.9992C12.2612 16.13 12.2685 15.9088 12.3021 15.1705C12.3332 14.488 12.4471 14.1174 12.543 13.8706C12.6551 13.5662 12.8341 13.2908 13.0668 13.0648C13.2928 12.8321 13.5682 12.6531 13.8726 12.541C14.1193 12.4452 14.49 12.3312 15.1724 12.3001C15.9107 12.2665 16.1319 12.2593 18.0011 12.2593L18 12.2604ZM18.0011 10.998C16.1 10.998 15.8615 11.0061 15.1149 11.0403C14.3683 11.0745 13.8598 11.1937 13.4152 11.3665C12.948 11.5424 12.5247 11.8179 12.1748 12.174C11.8188 12.5239 11.5432 12.9472 11.3673 13.4144C11.1945 13.859 11.0761 14.3686 11.0422 15.1135C11.0083 15.8585 11 16.098 11 17.9992C11 19.9003 11.0081 20.1387 11.0422 20.8854C11.0764 21.632 11.1945 22.1394 11.3673 22.5839C11.5433 23.051 11.8188 23.474 12.1748 23.8238C12.5246 24.1801 12.9479 24.4557 13.4152 24.6315C13.8598 24.8047 14.3694 24.923 15.1144 24.9569C15.8593 24.9908 16.0994 24.9992 18.0006 24.9992C19.9017 24.9992 20.1401 24.9911 20.8867 24.9569C21.6334 24.9227 22.1402 24.8047 22.5848 24.6315C23.05 24.4518 23.4724 24.1768 23.825 23.8242C24.1777 23.4716 24.4527 23.0491 24.6324 22.5839C24.8055 22.1394 24.9239 21.6298 24.9578 20.8848C24.9917 20.1398 25 19.8998 25 17.9986C25 16.0974 24.9919 15.859 24.9578 15.1124C24.9236 14.3658 24.8055 13.859 24.6324 13.4144C24.4566 12.9473 24.1812 12.5242 23.8252 12.1745C23.4753 11.8183 23.052 11.5425 22.5848 11.3665C22.1402 11.1937 21.6306 11.0753 20.8856 11.0414C20.1407 11.0075 19.9012 10.9992 18 10.9992L18.0011 10.998Z" fill="#FC70FF"/>
<path d="M18.0007 14.4063C17.2898 14.4063 16.5949 14.6171 16.0037 15.012C15.4126 15.407 14.9519 15.9684 14.6799 16.6252C14.4078 17.282 14.3366 18.0047 14.4753 18.702C14.614 19.3992 14.9564 20.0397 15.459 20.5424C15.9617 21.0451 16.6022 21.3874 17.2995 21.5261C17.9967 21.6648 18.7195 21.5936 19.3763 21.3216C20.0331 21.0495 20.5945 20.5888 20.9894 19.9977C21.3844 19.4066 21.5952 18.7116 21.5952 18.0007C21.5952 17.5287 21.5023 17.0613 21.3217 16.6251C21.141 16.189 20.8763 15.7928 20.5425 15.459C20.2087 15.1252 19.8124 14.8604 19.3763 14.6798C18.9402 14.4992 18.4728 14.4062 18.0007 14.4063ZM18.0007 20.3348C17.5391 20.3348 17.0878 20.1979 16.704 19.9414C16.3201 19.685 16.021 19.3204 15.8443 18.8939C15.6677 18.4674 15.6214 17.9981 15.7115 17.5454C15.8016 17.0926 16.0239 16.6767 16.3503 16.3503C16.6767 16.0239 17.0926 15.8016 17.5454 15.7115C17.9981 15.6214 18.4674 15.6677 18.8939 15.8443C19.3204 16.021 19.685 16.3201 19.9414 16.704C20.1979 17.0878 20.3348 17.5391 20.3348 18.0007C20.3348 18.6198 20.0889 19.2134 19.6512 19.6512C19.2134 20.0889 18.6198 20.3348 18.0007 20.3348Z" fill="#FC70FF"/>
<path d="M21.7384 15.1038C22.2023 15.1038 22.5784 14.7277 22.5784 14.2638C22.5784 13.7999 22.2023 13.4238 21.7384 13.4238C21.2745 13.4238 20.8984 13.7999 20.8984 14.2638C20.8984 14.7277 21.2745 15.1038 21.7384 15.1038Z" fill="#FC70FF"/>
</g>
<defs>
<clipPath id="clip0_1_79">
<rect width="14" height="14" fill="white" transform="translate(11 11)"/>
</clipPath>
</defs>
</svg>
