<svg width="36" height="36" viewBox="0 0 36 36" fill="none" xmlns="http://www.w3.org/2000/svg">
<path d="M10.8022 18.308L10.8586 18.2167L14.3512 12.7563C14.3632 12.7386 14.3796 12.7244 14.3988 12.7152C14.418 12.7059 14.4393 12.7018 14.4606 12.7035C14.4819 12.7051 14.5023 12.7124 14.5199 12.7245C14.5375 12.7366 14.5515 12.7531 14.5606 12.7724C15.1432 14.0798 15.6344 15.7066 15.4116 16.7187C15.2519 17.2479 15.0207 17.7528 14.7244 18.2194C14.6841 18.2946 14.6411 18.3697 14.5928 18.4422C14.5818 18.4582 14.5669 18.4713 14.5496 18.4802C14.5322 18.4891 14.513 18.4936 14.4935 18.4932H10.9043C10.8823 18.4941 10.8605 18.4889 10.8414 18.4781C10.8223 18.4673 10.8065 18.4514 10.7959 18.4322C10.7853 18.4129 10.7803 18.3911 10.7814 18.3692C10.7825 18.3472 10.7897 18.326 10.8022 18.308Z" fill="#FC70FF"/>
<path d="M27.0007 19.3222V20.1866C27.0011 20.2105 26.9944 20.2339 26.9815 20.254C26.9686 20.274 26.9501 20.2898 26.9282 20.2994C26.6598 20.4148 25.7309 20.8363 25.347 21.3732C24.3645 22.7423 23.6074 24.6967 21.9376 24.6967H14.9417C14.3511 24.696 13.7664 24.5788 13.2211 24.352C12.6758 24.1252 12.1806 23.7931 11.7637 23.3747C11.3468 22.9564 11.0165 22.4599 10.7916 21.9138C10.5667 21.3677 10.4517 20.7826 10.4531 20.192V20.1115C10.4538 20.0799 10.4669 20.0498 10.4895 20.0278C10.512 20.0057 10.5424 19.9933 10.5739 19.9933H14.48C14.4983 19.994 14.5164 19.9984 14.5329 20.0063C14.5495 20.0142 14.5643 20.0254 14.5764 20.0392C14.5885 20.0531 14.5976 20.0692 14.6032 20.0867C14.6087 20.1042 14.6107 20.1227 14.6088 20.141C14.5803 20.399 14.6289 20.6596 14.7484 20.89C14.8617 21.1192 15.037 21.3121 15.2543 21.4468C15.4716 21.5816 15.7223 21.6528 15.9779 21.6524H17.9081V20.1464H15.9914C15.9691 20.1459 15.9474 20.1394 15.9285 20.1276C15.9096 20.1158 15.8942 20.0991 15.8841 20.0793C15.8739 20.0595 15.8692 20.0373 15.8706 20.0151C15.8721 19.9929 15.8794 19.9714 15.892 19.9531L15.9618 19.8511C16.1417 19.5826 16.3994 19.196 16.6571 18.7423C16.8365 18.4319 16.997 18.111 17.1377 17.7813C17.1645 17.7222 17.186 17.6605 17.2102 17.6014C17.2477 17.4967 17.2853 17.3974 17.3122 17.3007C17.339 17.2041 17.3632 17.1316 17.3846 17.0511C17.4482 16.7619 17.4788 16.4665 17.4759 16.1705C17.4759 16.0497 17.4759 15.9236 17.4598 15.8054C17.4437 15.6873 17.4383 15.537 17.4222 15.4108C17.4061 15.2846 17.39 15.1799 17.3685 15.0618C17.339 14.8873 17.3014 14.7128 17.2585 14.5249L17.2424 14.4578C17.2102 14.337 17.1806 14.2242 17.143 14.1034C17.033 13.7276 16.9095 13.3598 16.7753 13.0296C16.7269 12.8927 16.6732 12.7612 16.6169 12.6323C16.5363 12.4336 16.4531 12.2538 16.3779 12.0954C16.3377 12.0175 16.3055 11.9477 16.2732 11.8753C16.241 11.8028 16.1981 11.7142 16.1578 11.6363C16.1175 11.5585 16.0987 11.5209 16.0773 11.4672L15.841 11.0323C15.834 11.0191 15.8308 11.0042 15.832 10.9893C15.8332 10.9744 15.8386 10.9602 15.8477 10.9483C15.8567 10.9364 15.869 10.9273 15.8831 10.9223C15.8971 10.9172 15.9124 10.9162 15.9269 10.9196L17.4034 11.3195L17.5967 11.3759L17.8115 11.435L17.8893 11.4565V10.5706C17.8886 10.4693 17.9081 10.3689 17.9466 10.2753C17.9851 10.1816 18.0418 10.0966 18.1136 10.0251C18.1853 9.95363 18.2705 9.89715 18.3643 9.85898C18.4581 9.82081 18.5586 9.8017 18.6598 9.80278C18.7599 9.802 18.8591 9.82159 18.9514 9.86035C19.0437 9.89912 19.1272 9.95625 19.1967 10.0283C19.3383 10.1713 19.4182 10.364 19.4195 10.5652V11.8672L19.5779 11.9101L19.6128 11.9289L19.7766 12.0524C19.833 12.0954 19.892 12.1491 19.9618 12.2055C20.1041 12.3209 20.2759 12.4739 20.4611 12.6377C20.5095 12.6806 20.5578 12.7236 20.6034 12.7692C20.8424 12.992 21.1108 13.2524 21.3685 13.5424C21.441 13.6256 21.5108 13.7061 21.5833 13.7947C21.6558 13.8833 21.7309 13.9692 21.7954 14.0632C21.8598 14.1571 21.9752 14.2994 22.0638 14.4256C22.1014 14.4846 22.147 14.5464 22.1819 14.6054C22.2858 14.7625 22.3816 14.9247 22.4692 15.0913C22.5068 15.1665 22.5444 15.2497 22.5766 15.3303C22.6751 15.5436 22.7507 15.7668 22.8021 15.996C22.8179 16.044 22.8287 16.0935 22.8343 16.1437C22.849 16.2117 22.858 16.2809 22.8611 16.3504C22.8819 16.5849 22.8665 16.8212 22.8155 17.0511C22.794 17.1477 22.7672 17.239 22.735 17.3383C22.7027 17.4376 22.6678 17.5289 22.6249 17.6229C22.542 17.8177 22.4432 18.0053 22.3296 18.1839C22.292 18.2511 22.2464 18.3209 22.2034 18.388C22.1605 18.4551 22.1041 18.5249 22.0611 18.5893C22.0182 18.6537 21.935 18.7584 21.8679 18.8363C21.8106 18.9176 21.7487 18.9956 21.6826 19.0698C21.5913 19.1799 21.5028 19.2819 21.4142 19.3813C21.3596 19.448 21.3013 19.5116 21.2397 19.5719C21.1806 19.639 21.1189 19.698 21.0652 19.7517C21.0115 19.8054 20.896 19.9155 20.8316 19.9772L20.6786 20.1141C20.668 20.1246 20.6554 20.1328 20.6415 20.1383C20.6277 20.1438 20.6129 20.1466 20.5981 20.1464H19.4169V21.6524H20.896C21.2261 21.653 21.5453 21.5348 21.7954 21.3195C22.1169 21.0387 22.4217 20.7393 22.7081 20.4229C22.7226 20.4054 22.7424 20.3932 22.7645 20.388L26.8477 19.1987C26.8662 19.1935 26.8857 19.1929 26.9045 19.1968C26.9234 19.2007 26.941 19.209 26.956 19.2211C26.971 19.2331 26.9828 19.2486 26.9906 19.2662C26.9984 19.2838 27.0018 19.303 27.0007 19.3222Z" fill="#FC70FF"/>
</svg>
